<?xml version="1.0" encoding="UTF-8"?>
<!DOCTYPE svg PUBLIC "-//W3C//DTD SVG 1.1//EN" "http://www.w3.org/Graphics/SVG/1.1/DTD/svg11.dtd">
<svg xmlns="http://www.w3.org/2000/svg" version="1.1" width="1200px" height="1696px" style="shape-rendering:geometricPrecision; text-rendering:geometricPrecision; image-rendering:optimizeQuality; fill-rule:evenodd; clip-rule:evenodd" xmlns:xlink="http://www.w3.org/1999/xlink">
<g><path style="opacity:0.994" fill="#101114" d="M 481.5,9.5 C 554.5,9.5 627.5,9.5 700.5,9.5C 704.42,83.4414 714.92,156.441 732,228.5C 734.875,239.125 738.542,249.459 743,259.5C 747.326,282.813 754.66,305.146 765,326.5C 768.132,335.363 770.799,344.363 773,353.5C 778.846,368.194 785.513,382.527 793,396.5C 795.868,402.567 797.868,408.901 799,415.5C 800.441,416.87 802.108,417.87 804,418.5C 808.189,424.877 811.855,431.544 815,438.5C 816.406,440.871 818.406,442.538 821,443.5C 823.095,449.458 825.761,455.124 829,460.5C 844.462,480.962 862.295,499.129 882.5,515C 886.934,517.145 891.6,518.478 896.5,519C 913.66,521.767 929.66,518.767 944.5,510C 948.535,506.414 951.035,501.914 952,496.5C 954.039,494.126 956.372,492.126 959,490.5C 963.186,483.097 965.52,475.097 966,466.5C 968.897,437.492 966.897,408.825 960,380.5C 954.726,369.345 951.06,357.679 949,345.5C 944.818,340.974 942.152,335.64 941,329.5C 938.934,314.303 934.267,299.969 927,286.5C 913.104,248.64 899.937,210.64 887.5,172.5C 887.856,169.885 889.189,168.052 891.5,167C 922.12,164.064 952.786,163.731 983.5,166C 986.822,166.059 989.656,167.226 992,169.5C 992.368,174.304 993.368,178.97 995,183.5C 1004.78,205.514 1013.78,227.847 1022,250.5C 1044.89,300.507 1064.22,351.84 1080,404.5C 1093.4,434.361 1103.4,465.361 1110,497.5C 1114.47,511.906 1119.14,526.24 1124,540.5C 1127.97,563.373 1133.97,585.706 1142,607.5C 1147.15,626.257 1151.15,645.257 1154,664.5C 1157.78,675.274 1160.78,686.274 1163,697.5C 1171.88,748.808 1180.55,800.142 1189,851.5C 1192.63,930.808 1193.3,1010.14 1191,1089.5C 1190.26,1104.27 1188.59,1118.94 1186,1133.5C 1179.3,1168.3 1171.97,1202.97 1164,1237.5C 1144.15,1313.06 1113.82,1384.06 1073,1450.5C 1033.58,1511.6 984.743,1564.1 926.5,1608C 858.163,1649.11 784.496,1675.78 705.5,1688C 648.944,1693.56 592.277,1694.89 535.5,1692C 450.395,1686.3 371.728,1660.96 299.5,1616C 290.017,1608.09 279.684,1601.42 268.5,1596C 228.852,1566.69 193.352,1532.86 162,1494.5C 108.095,1423.7 68.0951,1345.36 42,1259.5C 36.349,1243.22 32.349,1226.55 30,1209.5C 27,1201.5 24,1193.5 21,1185.5C 19.0241,1167.34 16.0241,1149.34 12,1131.5C 10.6041,1121.54 9.60406,1111.54 9,1101.5C 5.70142,1026.5 5.70142,951.502 9,876.5C 13.6782,823.086 21.3448,770.086 32,717.5C 52.356,616.741 78.0227,517.408 109,419.5C 111.634,410.299 113.634,400.966 115,391.5C 117.14,389.328 119.474,387.328 122,385.5C 131.525,349.26 142.858,313.593 156,278.5C 157.223,274.385 159.223,270.718 162,267.5C 162.417,254.159 166.084,241.825 173,230.5C 176.769,214.756 181.769,199.422 188,184.5C 191.093,178.64 194.427,172.973 198,167.5C 227.479,168.268 256.979,169.101 286.5,170C 289.882,170.176 293.215,170.676 296.5,171.5C 296.709,172.086 297.043,172.586 297.5,173C 280.08,228.595 262.246,284.095 244,339.5C 238.102,357.861 233.435,376.528 230,395.5C 223.718,406.28 220.051,417.947 219,430.5C 214.045,455.769 218.045,479.435 231,501.5C 256.181,531.842 284.014,534.675 314.5,510C 329.016,497.483 342.183,483.65 354,468.5C 365,449.167 376,429.833 387,410.5C 399.515,383.809 411.182,356.809 422,329.5C 424.922,317.559 427.588,305.559 430,293.5C 431.743,289.016 433.743,284.683 436,280.5C 438.256,270.554 440.256,260.554 442,250.5C 451.363,222.05 458.696,193.05 464,163.5C 467.676,139.778 471.676,116.111 476,92.5C 478.62,64.8266 480.454,37.1599 481.5,9.5 Z M 567.5,83.5 C 583.837,83.3334 600.17,83.5001 616.5,84C 619.738,84.232 622.238,85.732 624,88.5C 625.798,96.0831 627.131,103.75 628,111.5C 632.206,151.89 636.872,192.223 642,232.5C 647.794,258.472 653.461,284.472 659,310.5C 666.132,333.562 673.465,356.562 681,379.5C 689.783,401.067 699.117,422.401 709,443.5C 712.927,452.28 716.26,461.28 719,470.5C 721.343,471.127 723.51,472.127 725.5,473.5C 729.34,484.18 734.507,494.18 741,503.5C 751.403,519.802 762.903,535.302 775.5,550C 776.766,550.309 777.933,550.809 779,551.5C 780.092,554.044 780.759,556.711 781,559.5C 781.833,560.333 782.667,561.167 783.5,562C 786.352,562.269 789.018,563.103 791.5,564.5C 792.86,568.363 795.193,571.53 798.5,574C 808.043,580.275 817.043,587.275 825.5,595C 825.167,595.333 824.833,595.667 824.5,596C 770.521,597.941 716.521,598.941 662.5,599C 562.5,599.667 462.5,599.667 362.5,599C 388.887,573.957 413.054,547.124 435,518.5C 445.935,500.282 457.601,482.616 470,465.5C 470.786,460.78 471.786,456.114 473,451.5C 476.172,447.159 478.839,442.492 481,437.5C 508.1,371.768 527.1,303.768 538,233.5C 544.514,189.688 549.181,145.688 552,101.5C 552.801,91.479 557.968,85.479 567.5,83.5 Z M 323.5,676.5 C 388.834,676.333 454.168,676.5 519.5,677C 526.167,677.333 532.833,677.667 539.5,678C 540.766,678.309 541.933,678.809 543,679.5C 545.693,692.34 547.026,705.34 547,718.5C 548.1,827.846 549.934,937.179 552.5,1046.5C 552.333,1056.83 552.167,1067.17 552,1077.5C 552.02,1081.76 550.853,1085.6 548.5,1089C 449.021,1091.53 349.521,1092.69 250,1092.5C 207.5,1092.33 165,1092.17 122.5,1092C 121.667,1091.17 120.833,1090.33 120,1089.5C 117.255,1080.36 115.588,1071.03 115,1061.5C 110.26,985.718 114.26,910.385 127,835.5C 133.667,797.5 140.333,759.5 147,721.5C 149.029,709.023 151.695,696.69 155,684.5C 155.374,683.584 155.874,682.75 156.5,682C 164.797,680.928 173.13,680.261 181.5,680C 228.989,678.528 276.323,677.361 323.5,676.5 Z M 630.5,676.5 C 767.835,676.167 905.168,676.5 1042.5,677.5C 1044.98,685.407 1047.14,693.407 1049,701.5C 1056.51,738.532 1064.17,775.532 1072,812.5C 1082.55,863.622 1086.72,915.289 1084.5,967.5C 1084.37,998.506 1083.87,1029.51 1083,1060.5C 1082.74,1068.87 1082.07,1077.2 1081,1085.5C 1069.61,1087.08 1058.11,1087.91 1046.5,1088C 909.833,1090.77 773.166,1091.11 636.5,1089C 635.773,1087.6 635.273,1086.1 635,1084.5C 632.321,948.514 630.821,812.514 630.5,676.5 Z M 834.5,703.5 C 837.794,703.259 840.794,704.092 843.5,706C 848.083,709.912 851.917,714.412 855,719.5C 863.52,733.035 869.687,747.535 873.5,763C 873.66,765.47 872.993,767.636 871.5,769.5C 868.327,771.283 864.994,772.783 861.5,774C 853.903,782.563 844.736,789.063 834,793.5C 826.5,788 819,782.5 811.5,777C 806.488,773.321 802.154,768.988 798.5,764C 802.887,748.728 809.054,734.228 817,720.5C 821.406,713.259 827.239,707.593 834.5,703.5 Z M 726.5,753.5 C 743.51,754.004 759.177,758.837 773.5,768C 779.404,771.812 783.071,777.146 784.5,784C 783.613,798.35 778.28,810.684 768.5,821C 755.677,827.044 742.677,827.71 729.5,823C 721.105,814.186 715.939,803.686 714,791.5C 711.691,780.707 712.025,770.04 715,759.5C 718.308,756.265 722.141,754.265 726.5,753.5 Z M 933.5,753.5 C 939.509,753.334 945.509,753.501 951.5,754C 960.303,756.416 964.637,762.25 964.5,771.5C 961.603,788.962 955.103,804.962 945,819.5C 943.59,820.787 942.09,821.954 940.5,823C 927.955,825.211 915.622,824.211 903.5,820C 898.384,815.271 895.217,809.438 894,802.5C 890.848,793.397 889.848,784.064 891,774.5C 894.41,767.533 899.91,763.033 907.5,761C 916.199,758.163 924.866,755.663 933.5,753.5 Z M 800.5,781.5 C 802.679,781.84 804.512,782.84 806,784.5C 808.181,791.682 813.015,795.515 820.5,796C 822.329,803.499 819.996,809.499 813.5,814C 807.864,816.818 802.198,819.651 796.5,822.5C 794.364,821.528 793.197,819.861 793,817.5C 791.927,807.689 792.594,798.022 795,788.5C 796.371,785.734 798.204,783.401 800.5,781.5 Z M 873.5,783.5 C 876.265,784.996 878.099,787.33 879,790.5C 881.208,796.5 882.708,802.666 883.5,809C 883.643,815.364 880.476,818.53 874,818.5C 866.62,817.642 860.286,814.642 855,809.5C 852.247,805.667 851.914,801.667 854,797.5C 859.774,791.708 866.274,787.041 873.5,783.5 Z M 832.5,827.5 C 841.571,826.748 850.238,828.248 858.5,832C 866.736,839.405 875.402,846.238 884.5,852.5C 895.218,884.168 886.884,909.334 859.5,928C 847.154,932.169 834.487,933.502 821.5,932C 807.238,925.741 796.071,915.908 788,902.5C 782.701,881.628 786.034,862.294 798,844.5C 807.524,834.654 819.024,828.988 832.5,827.5 Z M 481.5,832.5 C 482.831,887.668 482.831,943.001 481.5,998.5C 447.825,1013.26 413.991,1027.59 380,1041.5C 378.15,1036.06 377.15,1030.4 377,1024.5C 374.212,986.714 372.379,948.88 371.5,911C 371.723,901.439 372.556,891.939 374,882.5C 375.833,878 379,874.833 383.5,873C 416.827,860.828 449.494,847.328 481.5,832.5 Z M 753.5,835.5 C 758.536,835.588 763.536,836.088 768.5,837C 769.308,837.308 769.975,837.808 770.5,838.5C 772.991,845.762 773.158,853.095 771,860.5C 770.167,861.333 769.333,862.167 768.5,863C 756.749,864.707 748.249,860.207 743,849.5C 740.826,846.454 740.159,843.12 741,839.5C 742.171,838.107 743.671,837.273 745.5,837C 748.365,836.817 751.031,836.317 753.5,835.5 Z M 909.5,835.5 C 914.289,835.624 918.955,836.458 923.5,838C 929.231,842.667 930.064,848.167 926,854.5C 921.65,863.435 915.15,865.602 906.5,861C 901.861,854.923 900.361,848.09 902,840.5C 903.599,837.368 906.099,835.701 909.5,835.5 Z M 231.5,836.5 C 268.69,849.897 306.023,862.897 343.5,875.5C 344.874,924.818 345.374,974.151 345,1023.5C 344.954,1029.1 343.787,1034.43 341.5,1039.5C 340.672,1040.41 339.672,1041.08 338.5,1041.5C 303.032,1027.23 267.366,1013.57 231.5,1000.5C 231.5,945.833 231.5,891.167 231.5,836.5 Z M 949.5,841.5 C 965.499,846 980.832,852.167 995.5,860C 1006.33,867.814 1009.49,877.981 1005,890.5C 989.759,902.623 972.759,911.623 954,917.5C 946.013,913.513 940.013,907.513 936,899.5C 931.616,892.569 928.782,885.069 927.5,877C 928.216,870.041 931.716,865.208 938,862.5C 938.74,853.677 942.574,846.677 949.5,841.5 Z M 716.5,845.5 C 720.106,845.211 723.606,845.544 727,846.5C 728.862,850.419 730.529,854.419 732,858.5C 752.764,872.256 753.764,887.256 735,903.5C 732.139,907.888 729.806,912.554 728,917.5C 726.649,919.019 725.149,920.352 723.5,921.5C 712.184,918.561 701.184,914.728 690.5,910C 682.753,904.924 675.587,899.091 669,892.5C 663.437,882.164 664.937,872.998 673.5,865C 686.804,856.072 701.138,849.572 716.5,845.5 Z M 761.5,893.5 C 765.883,896.399 769.049,900.399 771,905.5C 773.114,910.84 774.614,916.34 775.5,922C 775,923.5 774.5,925 774,926.5C 762.917,930.468 752.084,929.635 741.5,924C 740.424,922.274 740.257,920.441 741,918.5C 745.871,908.472 752.704,900.138 761.5,893.5 Z M 910.5,894.5 C 917.567,896.722 923.067,901.055 927,907.5C 929.408,911.058 931.242,914.891 932.5,919C 931.833,920 931.167,921 930.5,922C 920.317,927.539 909.817,928.706 899,925.5C 897.811,913.226 901.645,902.893 910.5,894.5 Z M 938.5,935.5 C 941.448,935.223 944.281,935.556 947,936.5C 956.224,953.728 961.891,972.061 964,991.5C 964.866,996.709 964.199,1001.71 962,1006.5C 957.71,1009.58 952.876,1011.25 947.5,1011.5C 937.102,1010.57 927.102,1008.07 917.5,1004C 908.833,999.667 900.167,995.333 891.5,991C 890.919,990.107 890.585,989.107 890.5,988C 893.49,972.207 897.49,956.707 902.5,941.5C 914.58,939.206 926.58,937.206 938.5,935.5 Z M 741.5,939.5 C 753.839,940.368 766.172,941.701 778.5,943.5C 781.543,960.384 783.376,977.384 784,994.5C 766.638,1004.51 747.971,1010.51 728,1012.5C 721.896,1012.73 717.563,1010.07 715,1004.5C 710.102,984.222 713.102,965.222 724,947.5C 728.734,942.209 734.567,939.542 741.5,939.5 Z M 878.5,940.5 C 880.451,940.227 881.951,940.893 883,942.5C 884.076,953.82 882.742,964.82 879,975.5C 876.79,978.29 873.956,979.123 870.5,978C 866.156,975.829 862.156,973.163 858.5,970C 855.639,967.781 853.639,964.947 852.5,961.5C 854.439,955.117 857.772,949.617 862.5,945C 868.016,943.791 873.35,942.291 878.5,940.5 Z M 796.5,944.5 C 803.787,944.637 810.453,946.804 816.5,951C 822.608,955.604 823.108,960.771 818,966.5C 814.5,970 811,973.5 807.5,977C 803.375,980.382 799.542,980.216 796,976.5C 792.515,965.71 792.681,955.043 796.5,944.5 Z M 831.5,974.5 C 848.265,975.466 862.099,982.466 873,995.5C 874.257,997.513 875.091,999.679 875.5,1002C 871.14,1018.08 864.64,1033.25 856,1047.5C 848.63,1058.18 839.13,1060.68 827.5,1055C 816.945,1042.4 809.112,1028.23 804,1012.5C 802.752,1005.79 803.752,999.452 807,993.5C 813.877,985.334 822.044,979 831.5,974.5 Z M 231.5,1171.5 C 482.5,1171.33 733.5,1171.5 984.5,1172C 1007.22,1172.03 1029.88,1173.03 1052.5,1175C 1055.47,1175.14 1057.14,1176.64 1057.5,1179.5C 1050.78,1211.03 1041.28,1241.7 1029,1271.5C 1027.68,1275.31 1025.52,1278.48 1022.5,1281C 1016.54,1282 1010.54,1282.66 1004.5,1283C 973.51,1284.07 942.51,1284.74 911.5,1285C 690.167,1285.67 468.833,1285.67 247.5,1285C 227.817,1284.75 208.151,1284.08 188.5,1283C 184.75,1282.74 181.084,1282.07 177.5,1281C 175.667,1280.5 174.5,1279.33 174,1277.5C 160.125,1244.37 148.958,1210.37 140.5,1175.5C 170.938,1173.27 201.271,1171.94 231.5,1171.5 Z M 594.5,1320.5 C 596.308,1320.49 597.975,1320.99 599.5,1322C 619.778,1339.78 640.778,1356.62 662.5,1372.5C 684.459,1357 705.125,1339.84 724.5,1321C 726.971,1320.29 729.305,1320.63 731.5,1322C 749.754,1339.27 769.921,1353.77 792,1365.5C 796.842,1363.66 801.342,1361.16 805.5,1358C 819.167,1347 832.833,1336 846.5,1325C 849.464,1323.03 852.631,1321.53 856,1320.5C 872.07,1334.98 888.57,1349.15 905.5,1363C 912.253,1369.08 918.253,1375.75 923.5,1383C 921.888,1385.62 919.888,1387.95 917.5,1390C 908.281,1397.55 898.281,1403.88 887.5,1409C 884.529,1409.79 881.529,1410.46 878.5,1411C 861.798,1411.89 845.131,1411.56 828.5,1410C 819.806,1408.32 811.806,1404.99 804.5,1400C 794.843,1395.55 786.51,1397.22 779.5,1405C 754.168,1417.05 727.835,1419.71 700.5,1413C 689.39,1410.19 678.724,1406.19 668.5,1401C 662.934,1399.46 658.268,1400.79 654.5,1405C 637.635,1414.34 619.635,1420.18 600.5,1422.5C 578.2,1419.68 556.867,1413.51 536.5,1404C 531.079,1403.16 525.746,1403.49 520.5,1405C 492.902,1420.04 463.902,1423.71 433.5,1416C 423.03,1412.01 412.53,1408.18 402,1404.5C 389.629,1406.85 377.463,1410.01 365.5,1414C 345.895,1418.18 326.228,1418.52 306.5,1415C 294.58,1413.12 284.414,1407.96 276,1399.5C 275.167,1397.83 274.333,1396.17 273.5,1394.5C 278.348,1385.47 284.182,1377.13 291,1369.5C 306.551,1351.94 323.885,1336.6 343,1323.5C 362.385,1342.05 382.218,1360.05 402.5,1377.5C 420.055,1361.11 438.055,1345.28 456.5,1330C 459.601,1328.03 462.768,1326.2 466,1324.5C 471.568,1327.03 476.735,1330.2 481.5,1334C 494.129,1344.29 506.462,1354.96 518.5,1366C 523.293,1370.16 528.626,1371.16 534.5,1369C 537.833,1367 541.167,1365 544.5,1363C 560.771,1348.22 577.437,1334.05 594.5,1320.5 Z M 1017.5,1377.5 C 1019.2,1379.31 1020.03,1381.64 1020,1384.5C 1021.56,1386.36 1023.39,1387.86 1025.5,1389C 1040.42,1395.2 1055.42,1401.2 1070.5,1407C 1050.68,1412.84 1033.35,1422.84 1018.5,1437C 1015.22,1439.29 1011.72,1441.12 1008,1442.5C 1007.23,1442.36 1006.56,1442.02 1006,1441.5C 1005.55,1435.27 1006.05,1429.1 1007.5,1423C 1006.85,1421.56 1006.52,1420.06 1006.5,1418.5C 1000.92,1420.23 995.92,1423.07 991.5,1427C 984.792,1432.04 979.125,1438.04 974.5,1445C 987.5,1453.33 1000.5,1461.67 1013.5,1470C 1015.61,1471.26 1016.61,1473.1 1016.5,1475.5C 1011.97,1475.73 1007.63,1474.9 1003.5,1473C 997.328,1468.91 990.661,1465.91 983.5,1464C 973.946,1461.89 969.78,1465.72 971,1475.5C 970.167,1476.33 969.333,1477.17 968.5,1478C 959.701,1478.8 953.201,1482.97 949,1490.5C 946.178,1499.16 949.012,1502.5 957.5,1500.5C 958.804,1496.19 959.971,1491.86 961,1487.5C 965.591,1484.63 969.924,1484.97 974,1488.5C 974.484,1490.91 974.15,1493.25 973,1495.5C 966.32,1504.43 957.487,1508.26 946.5,1507C 938.991,1502.81 936.824,1496.64 940,1488.5C 941.122,1486.38 942.622,1484.54 944.5,1483C 949.253,1480.54 953.753,1477.71 958,1474.5C 960.133,1468.03 964.133,1463.03 970,1459.5C 971.009,1457.98 971.509,1456.31 971.5,1454.5C 969.692,1454.49 968.025,1454.99 966.5,1456C 948.73,1470.27 931.73,1485.43 915.5,1501.5C 926.196,1511.94 937.029,1522.27 948,1532.5C 948.635,1533.97 949.469,1535.3 950.5,1536.5C 950.167,1536.83 949.833,1537.17 949.5,1537.5C 946.397,1536.24 943.397,1534.74 940.5,1533C 931.833,1526.33 923.167,1519.67 914.5,1513C 909.571,1509.5 904.571,1509.16 899.5,1512C 895.217,1515.45 891.883,1519.61 889.5,1524.5C 890,1525.5 890.5,1526.5 891,1527.5C 897.902,1533.03 905.068,1538.2 912.5,1543C 918.673,1547.53 919.839,1553.03 916,1559.5C 913.37,1563.13 910.37,1566.47 907,1569.5C 907.997,1564.46 907.664,1559.46 906,1554.5C 900.333,1549.5 894.667,1544.5 889,1539.5C 886.233,1535.96 884.566,1531.96 884,1527.5C 883.275,1526.94 882.442,1526.61 881.5,1526.5C 860.739,1536.05 840.739,1546.88 821.5,1559C 816.204,1562.77 816.204,1566.43 821.5,1570C 826.72,1570.06 831.387,1568.4 835.5,1565C 842.133,1557.36 850.133,1551.69 859.5,1548C 861.92,1547.31 864.087,1547.81 866,1549.5C 866.753,1555.44 868.419,1561.11 871,1566.5C 874.394,1570.9 877.394,1575.56 880,1580.5C 880.749,1581.64 880.583,1582.64 879.5,1583.5C 876.166,1582.17 873.166,1580.34 870.5,1578C 865.398,1571.38 859.065,1566.55 851.5,1563.5C 849.272,1564.22 847.439,1565.55 846,1567.5C 843.807,1574.73 839.974,1580.89 834.5,1586C 832.305,1587.37 829.971,1587.71 827.5,1587C 825,1585.17 822.5,1583.33 820,1581.5C 816.201,1575.4 812.035,1569.57 807.5,1564C 802.724,1563.63 798.557,1565.13 795,1568.5C 794.333,1571.17 794.333,1573.83 795,1576.5C 800.244,1587.99 805.744,1599.32 811.5,1610.5C 811,1610.83 810.5,1611.17 810,1611.5C 794.087,1607.6 777.92,1605.44 761.5,1605C 757.332,1604.62 753.332,1603.62 749.5,1602C 748.328,1600.13 748.495,1598.3 750,1596.5C 757.411,1590.88 764.911,1585.38 772.5,1580C 773.337,1578.99 773.67,1577.82 773.5,1576.5C 769.44,1576.48 765.44,1576.98 761.5,1578C 748.6,1581.64 735.6,1584.81 722.5,1587.5C 727.626,1602.21 732.959,1616.87 738.5,1631.5C 736.125,1634.12 733.959,1633.79 732,1630.5C 725.142,1618.78 718.809,1606.78 713,1594.5C 707.364,1589.52 701.364,1589.19 695,1593.5C 694.833,1595 694.667,1596.5 694.5,1598C 698.07,1612.11 701.404,1626.28 704.5,1640.5C 695.652,1639.62 686.985,1637.79 678.5,1635C 673.09,1633.42 668.09,1631.09 663.5,1628C 664.167,1627 664.833,1626 665.5,1625C 672.888,1620.94 679.722,1616.11 686,1610.5C 685.928,1606.06 683.761,1602.9 679.5,1601C 675.491,1598.62 671.324,1598.12 667,1599.5C 666.349,1601.24 666.515,1602.9 667.5,1604.5C 669.336,1605.92 671.336,1607.09 673.5,1608C 676.267,1610.9 675.6,1612.9 671.5,1614C 661.643,1616.42 651.643,1617.08 641.5,1616C 637.539,1615.6 633.872,1614.43 630.5,1612.5C 629.417,1611.64 629.251,1610.64 630,1609.5C 639.706,1601.57 638.206,1597.23 625.5,1596.5C 620.113,1596.9 614.779,1597.57 609.5,1598.5C 609.167,1599.5 608.833,1600.5 608.5,1601.5C 609.953,1613.13 610.453,1624.8 610,1636.5C 609.883,1639.63 608.383,1640.8 605.5,1640C 598.328,1635.58 591.328,1630.91 584.5,1626C 574.377,1623.51 564.71,1619.85 555.5,1615C 552.27,1613.28 551.936,1611.28 554.5,1609C 568.699,1605.03 583.032,1601.69 597.5,1599C 578.054,1593.61 558.387,1591.94 538.5,1594C 537.283,1595.65 536.45,1597.48 536,1599.5C 534.657,1608.56 532.99,1617.56 531,1626.5C 530.117,1629.1 528.617,1631.27 526.5,1633C 524.633,1633.71 523.133,1633.21 522,1631.5C 521.333,1629.17 521.333,1626.83 522,1624.5C 525.359,1613.38 527.026,1602.05 527,1590.5C 526.692,1589.69 526.192,1589.03 525.5,1588.5C 521.739,1587.02 518.073,1585.36 514.5,1583.5C 521.244,1578.93 527.577,1573.76 533.5,1568C 541.846,1564.02 550.512,1563.35 559.5,1566C 569.164,1568 578.497,1571 587.5,1575C 591.183,1576.84 594.516,1579.17 597.5,1582C 592.113,1581.82 587.113,1580.16 582.5,1577C 570.387,1573.66 558.053,1572.66 545.5,1574C 541.807,1574.17 539.141,1575.84 537.5,1579C 537.759,1580.26 538.426,1581.26 539.5,1582C 542.089,1583.2 544.756,1584.2 547.5,1585C 588.614,1590.81 629.948,1593.48 671.5,1593C 676.108,1594.48 680.775,1595.65 685.5,1596.5C 685.283,1592.39 684.783,1588.39 684,1584.5C 690.434,1583.78 696.934,1583.61 703.5,1584C 705.548,1581.67 705.882,1579 704.5,1576C 706.408,1568.76 711.074,1564.09 718.5,1562C 730.862,1558.03 743.529,1556.36 756.5,1557C 743.559,1559.2 731.225,1563.2 719.5,1569C 711.872,1575.94 713.039,1579.44 723,1579.5C 733.015,1578.7 742.849,1576.86 752.5,1574C 798.019,1560.95 841.019,1542.28 881.5,1518C 888.576,1513.59 895.076,1508.43 901,1502.5C 902.42,1499.82 902.92,1497.15 902.5,1494.5C 907.228,1496.04 911.562,1495.21 915.5,1492C 951.415,1461.76 981.915,1426.93 1007,1387.5C 1010.4,1383.93 1013.9,1380.6 1017.5,1377.5 Z M 195.5,1381.5 C 222.936,1412.1 251.936,1441.27 282.5,1469C 284.818,1470.99 287.484,1472.16 290.5,1472.5C 290.392,1470.22 289.559,1468.22 288,1466.5C 277.6,1456.77 267.933,1446.44 259,1435.5C 256.145,1431.61 255.978,1427.78 258.5,1424C 263.455,1422.64 265.455,1424.3 264.5,1429C 265.137,1431.25 265.97,1433.41 267,1435.5C 273.61,1442.78 280.277,1450.12 287,1457.5C 293.322,1465.48 297.489,1474.48 299.5,1484.5C 299.658,1486.32 298.991,1487.65 297.5,1488.5C 293.48,1486.13 289.48,1483.8 285.5,1481.5C 284.914,1481.71 284.414,1482.04 284,1482.5C 281.393,1493.47 281.06,1504.47 283,1515.5C 283.903,1516.7 285.069,1517.53 286.5,1518C 295.76,1520.74 305.093,1521.07 314.5,1519C 316.541,1517.68 318.541,1516.68 320.5,1516C 325.589,1520.11 325.589,1524.11 320.5,1528C 317.956,1529.09 315.289,1529.76 312.5,1530C 311.572,1530.39 310.905,1531.05 310.5,1532C 315.196,1539.7 321.029,1546.54 328,1552.5C 332.161,1547.51 335.827,1542.18 339,1536.5C 341.373,1524.08 336.873,1514.91 325.5,1509C 323.863,1508.4 322.197,1507.9 320.5,1507.5C 312.601,1512.94 305.101,1512.28 298,1505.5C 296.734,1501.2 298.234,1498.37 302.5,1497C 311.58,1496.47 319.913,1498.8 327.5,1504C 330.5,1506.33 333.5,1508.67 336.5,1511C 340.5,1515.67 344.5,1520.33 348.5,1525C 350.167,1525.67 351.833,1525.67 353.5,1525C 355.15,1522.19 357.15,1519.69 359.5,1517.5C 366.977,1523.14 374.311,1528.98 381.5,1535C 384.025,1535.9 386.192,1535.4 388,1533.5C 395.053,1538.62 402.553,1543.12 410.5,1547C 426.676,1553.73 443.009,1560.06 459.5,1566C 462.661,1567.41 465.661,1569.08 468.5,1571C 469.517,1572.05 469.684,1573.22 469,1574.5C 465.197,1575.89 462.197,1578.22 460,1581.5C 455.551,1590.18 451.885,1599.18 449,1608.5C 447.981,1609.69 446.814,1610.69 445.5,1611.5C 440.83,1606.33 435.83,1601.5 430.5,1597C 423.792,1593.1 416.792,1589.76 409.5,1587C 405.092,1584.77 402.425,1581.27 401.5,1576.5C 401.57,1575.23 401.903,1574.06 402.5,1573C 410.875,1573.74 419.208,1574.74 427.5,1576C 417.73,1565.22 407.063,1555.56 395.5,1547C 392.18,1546.45 389.514,1547.61 387.5,1550.5C 380.51,1559.15 374.01,1568.15 368,1577.5C 361.001,1586.17 358.668,1585.17 361,1574.5C 366.338,1564.35 371.838,1554.35 377.5,1544.5C 373.537,1536.26 367.037,1531.26 358,1529.5C 356.989,1530.34 355.822,1530.67 354.5,1530.5C 352.722,1536.05 349.889,1541.05 346,1545.5C 342.667,1549.5 339.333,1553.5 336,1557.5C 333.286,1560.55 330.286,1563.22 327,1565.5C 322.684,1558.39 317.518,1551.89 311.5,1546C 300.38,1537.88 289.546,1529.38 279,1520.5C 276.854,1517.87 275.521,1514.87 275,1511.5C 274.959,1505 274.292,1498.66 273,1492.5C 268.833,1496.67 264.667,1500.83 260.5,1505C 258.487,1506.26 256.321,1507.09 254,1507.5C 241.029,1503.02 230.363,1495.35 222,1484.5C 217.44,1478.16 215.773,1471.16 217,1463.5C 217.881,1460.4 219.714,1458.06 222.5,1456.5C 223.937,1458.02 224.604,1459.85 224.5,1462C 222.751,1468.84 223.584,1475.34 227,1481.5C 234.969,1490.23 244.469,1496.56 255.5,1500.5C 255.657,1499.13 255.49,1497.79 255,1496.5C 249.783,1491.47 243.95,1487.31 237.5,1484C 231.61,1479.77 230.443,1474.6 234,1468.5C 240.352,1462.65 246.852,1456.98 253.5,1451.5C 239.316,1436.48 225.316,1421.32 211.5,1406C 210.101,1405.41 208.768,1405.57 207.5,1406.5C 206.359,1408.42 206.192,1410.42 207,1412.5C 209.473,1418.78 212.473,1424.78 216,1430.5C 218.469,1434.89 219.469,1439.56 219,1444.5C 214.559,1447.33 209.726,1448.16 204.5,1447C 189.715,1444.03 177.548,1436.87 168,1425.5C 165.35,1421.29 165.017,1416.96 167,1412.5C 176.289,1406.77 185.789,1401.44 195.5,1396.5C 196.638,1391.52 196.638,1386.52 195.5,1381.5 Z M 1041.5,1427.5 C 1044.8,1427.02 1047.46,1428.02 1049.5,1430.5C 1047.45,1437.08 1043.12,1440.25 1036.5,1440C 1033.52,1434.11 1035.19,1429.94 1041.5,1427.5 Z"/></g>
<g><path style="opacity:0.966" fill="#101114" d="M 593.5,169.5 C 595.144,169.286 596.644,169.62 598,170.5C 598.333,173.167 598.667,175.833 599,178.5C 600.675,236.491 602.008,294.491 603,352.5C 603.273,362.746 604.94,372.746 608,382.5C 611.655,387.275 616.488,388.775 622.5,387C 628.295,386.218 630.462,383.051 629,377.5C 625.333,372.5 621.667,367.5 618,362.5C 610.516,342.647 617.349,333.814 638.5,336C 640.978,337.938 641.145,340.105 639,342.5C 636.146,344.598 633.479,346.931 631,349.5C 626.968,354.402 627.968,357.735 634,359.5C 637.862,358.623 640.362,356.29 641.5,352.5C 646.082,349.526 649.582,350.526 652,355.5C 654.058,371.536 649.224,385.036 637.5,396C 630.4,400.359 622.734,402.025 614.5,401C 611.249,399.423 608.249,397.423 605.5,395C 600.924,393.524 596.257,393.19 591.5,394C 590.069,394.465 588.903,395.299 588,396.5C 585.659,406.476 588.659,414.476 597,420.5C 599.785,426.077 597.952,428.91 591.5,429C 572.862,430.123 554.195,430.289 535.5,429.5C 531.967,411.637 529.301,393.637 527.5,375.5C 527.567,367.697 529.4,360.364 533,353.5C 536.256,351.571 539.756,351.071 543.5,352C 545.984,354.284 546.151,356.784 544,359.5C 542.667,360.833 541.333,362.167 540,363.5C 537.397,377.829 537.73,392.163 541,406.5C 544.876,416.485 551.209,418.151 560,411.5C 561.139,407.888 562.806,404.554 565,401.5C 571.333,394.5 577.667,387.5 584,380.5C 585.861,378.112 587.194,375.446 588,372.5C 585.823,317.693 583.99,262.86 582.5,208C 582.519,197.753 583.352,187.586 585,177.5C 587.074,173.923 589.907,171.256 593.5,169.5 Z"/></g>
<g><path style="opacity:0.92" fill="#101114" d="M 564.5,272.5 C 569.675,271.507 571.509,273.507 570,278.5C 566.001,288.08 558.834,293.08 548.5,293.5C 549.238,289.357 551.071,285.69 554,282.5C 557.396,278.935 560.896,275.602 564.5,272.5 Z"/></g>
<g><path style="opacity:0.944" fill="#111215" d="M 562.5,297.5 C 565.909,297.249 569.242,297.583 572.5,298.5C 574.124,299.869 574.624,301.536 574,303.5C 569.363,309.734 563.196,313.234 555.5,314C 553.838,306.825 556.171,301.325 562.5,297.5 Z"/></g>
<g><path style="opacity:0.965" fill="#101114" d="M 644.5,404.5 C 647.505,404.253 650.005,405.253 652,407.5C 653.03,410.95 654.363,414.283 656,417.5C 663.455,423.948 669.788,431.282 675,439.5C 675.738,443.402 675.072,447.068 673,450.5C 666.854,457.648 659.354,462.815 650.5,466C 642.923,467.577 635.923,470.411 629.5,474.5C 628.674,475.451 628.508,476.451 629,477.5C 630.8,479.317 632.966,480.484 635.5,481C 637.378,482.543 638.878,484.376 640,486.5C 641.94,496.344 639.606,505.011 633,512.5C 612.949,531.113 615.449,533.613 640.5,520C 645.578,516.263 649.078,511.43 651,505.5C 651.024,495.228 653.358,485.561 658,476.5C 659.684,474.649 661.517,472.982 663.5,471.5C 665.422,473.003 666.588,475.003 667,477.5C 668.639,492.337 665.972,506.337 659,519.5C 656.982,521.35 655.149,523.35 653.5,525.5C 653.833,526.5 654.5,527.167 655.5,527.5C 665.584,524.397 673.251,518.397 678.5,509.5C 685.277,509.383 689.277,506.05 690.5,499.5C 697.618,493.704 705.618,491.871 714.5,494C 715.899,495.062 716.899,496.395 717.5,498C 716.224,500.281 714.557,502.281 712.5,504C 706.83,506.833 701.497,510.166 696.5,514C 688.463,521.705 680.13,529.039 671.5,536C 665.141,539.453 658.474,542.119 651.5,544C 639.181,545.68 626.848,547.014 614.5,548C 611.609,554.511 613.943,558.178 621.5,559C 635.412,560.302 649.078,559.136 662.5,555.5C 663.648,553.851 664.981,552.351 666.5,551C 670.298,550.04 673.965,548.706 677.5,547C 682.134,543.368 686.467,539.368 690.5,535C 693.833,533.667 697.167,532.333 700.5,531C 704.217,527.615 708.217,524.615 712.5,522C 719.56,520.729 722.06,523.562 720,530.5C 714.186,542.658 704.686,549.825 691.5,552C 690.018,556.824 687.018,560.491 682.5,563C 669.035,568.533 655.035,571.866 640.5,573C 623.164,574.953 605.831,575.287 588.5,574C 586.282,571.25 584.949,568.083 584.5,564.5C 583.554,564.013 582.554,563.68 581.5,563.5C 553.739,569.247 525.739,571.08 497.5,569C 493.948,567.784 490.615,566.117 487.5,564C 479.395,563.215 471.395,561.881 463.5,560C 458.08,557.54 456.747,553.873 459.5,549C 466.812,547.178 474.145,547.178 481.5,549C 489.04,550.736 496.373,553.069 503.5,556C 510.833,556.667 518.167,556.667 525.5,556C 544.931,553.224 564.264,549.891 583.5,546C 589.297,544.903 594.631,542.736 599.5,539.5C 600.641,538.575 600.641,537.741 599.5,537C 596.956,535.908 594.289,535.241 591.5,535C 562.484,534.201 533.484,533.201 504.5,532C 499.304,531.713 495.304,529.379 492.5,525C 489.134,522.816 485.467,521.483 481.5,521C 478.651,518.441 477.817,515.274 479,511.5C 483.789,508.08 488.956,507.58 494.5,510C 500.63,514.823 507.63,517.49 515.5,518C 542.963,521.808 570.296,521.141 597.5,516C 606.934,511.635 616.434,507.468 626,503.5C 626.374,502.584 626.874,501.75 627.5,501C 622.624,496.393 616.957,493.059 610.5,491C 594.914,485.916 578.914,483.249 562.5,483C 550.204,480.534 544.537,473.034 545.5,460.5C 544.911,454.779 546.244,449.612 549.5,445C 551.464,444.376 553.131,444.876 554.5,446.5C 556.951,452.303 558.784,458.303 560,464.5C 561.214,466.049 562.714,467.215 564.5,468C 580.105,469.953 595.772,471.12 611.5,471.5C 610.944,462.663 610.278,453.83 609.5,445C 609.906,441.155 610.406,437.321 611,433.5C 613.967,428.267 616.634,428.601 619,434.5C 621.123,441.842 623.623,449.008 626.5,456C 628,456.5 629.5,457 631,457.5C 639.01,456.431 646.843,454.598 654.5,452C 657.689,450.456 658.855,447.956 658,444.5C 655.42,439.916 652.087,435.916 648,432.5C 642.549,426.143 639.882,418.81 640,410.5C 640.599,407.746 642.099,405.746 644.5,404.5 Z"/></g>
<g><path style="opacity:0.941" fill="#101114" d="M 695.5,455.5 C 700.818,454.537 703.151,456.704 702.5,462C 702.193,466.727 701.027,471.227 699,475.5C 693.947,481.446 690.781,480.612 689.5,473C 689.823,466.529 691.823,460.695 695.5,455.5 Z"/></g>
<g><path style="opacity:0.966" fill="#101114" d="M 831.5,691.5 C 842.428,689.384 851.261,692.717 858,701.5C 866.175,715.179 873.841,729.179 881,743.5C 883.783,747.951 886.95,752.117 890.5,756C 892.553,756.325 894.553,755.991 896.5,755C 915.034,744.033 935.034,739.366 956.5,741C 968.189,746.866 974.523,756.366 975.5,769.5C 972.925,788.391 967.425,806.391 959,823.5C 956.41,827.394 957.243,830.227 961.5,832C 976.491,835.104 990.158,841.104 1002.5,850C 1012.36,857.733 1018.36,867.733 1020.5,880C 1018.97,890.058 1014.3,898.391 1006.5,905C 992.717,915.228 977.717,923.395 961.5,929.5C 961.167,930.333 960.833,931.167 960.5,932C 964.162,946.985 968.995,961.485 975,975.5C 979.258,1014.3 962.425,1028.8 924.5,1019C 915.602,1015.88 906.936,1012.22 898.5,1008C 895.57,1006.68 892.57,1006.02 889.5,1006C 884.177,1015.29 880.01,1025.13 877,1035.5C 871.116,1048.79 862.282,1059.62 850.5,1068C 838.403,1073.38 827.236,1071.88 817,1063.5C 805.526,1046.05 796.359,1027.55 789.5,1008C 786.833,1007.33 784.167,1007.33 781.5,1008C 762.97,1018.97 742.97,1024.3 721.5,1024C 713.325,1022.83 707.825,1018.33 705,1010.5C 699.888,991.969 700.555,973.636 707,955.5C 710,949.5 713,943.5 716,937.5C 717.291,933.328 716.124,930.161 712.5,928C 690.724,924.361 672.224,914.528 657,898.5C 648.778,882.147 651.945,868.313 666.5,857C 678.9,846.8 692.9,839.8 708.5,836C 711.295,834.207 713.795,832.04 716,829.5C 714.071,820.734 710.737,812.4 706,804.5C 699.995,790.729 697.995,776.396 700,761.5C 702.675,748.655 710.508,741.655 723.5,740.5C 734.645,741.469 745.645,743.302 756.5,746C 764.412,748.293 771.745,751.626 778.5,756C 783.965,757.289 788.465,755.789 792,751.5C 795.446,729.769 805.279,711.602 821.5,697C 824.767,694.87 828.1,693.037 831.5,691.5 Z M 834.5,703.5 C 827.239,707.593 821.406,713.259 817,720.5C 809.054,734.228 802.887,748.728 798.5,764C 802.154,768.988 806.488,773.321 811.5,777C 819,782.5 826.5,788 834,793.5C 844.736,789.063 853.903,782.563 861.5,774C 864.994,772.783 868.327,771.283 871.5,769.5C 872.993,767.636 873.66,765.47 873.5,763C 869.687,747.535 863.52,733.035 855,719.5C 851.917,714.412 848.083,709.912 843.5,706C 840.794,704.092 837.794,703.259 834.5,703.5 Z M 726.5,753.5 C 722.141,754.265 718.308,756.265 715,759.5C 712.025,770.04 711.691,780.707 714,791.5C 715.939,803.686 721.105,814.186 729.5,823C 742.677,827.71 755.677,827.044 768.5,821C 778.28,810.684 783.613,798.35 784.5,784C 783.071,777.146 779.404,771.812 773.5,768C 759.177,758.837 743.51,754.004 726.5,753.5 Z M 933.5,753.5 C 924.866,755.663 916.199,758.163 907.5,761C 899.91,763.033 894.41,767.533 891,774.5C 889.848,784.064 890.848,793.397 894,802.5C 895.217,809.438 898.384,815.271 903.5,820C 915.622,824.211 927.955,825.211 940.5,823C 942.09,821.954 943.59,820.787 945,819.5C 955.103,804.962 961.603,788.962 964.5,771.5C 964.637,762.25 960.303,756.416 951.5,754C 945.509,753.501 939.509,753.334 933.5,753.5 Z M 800.5,781.5 C 798.204,783.401 796.371,785.734 795,788.5C 792.594,798.022 791.927,807.689 793,817.5C 793.197,819.861 794.364,821.528 796.5,822.5C 802.198,819.651 807.864,816.818 813.5,814C 819.996,809.499 822.329,803.499 820.5,796C 813.015,795.515 808.181,791.682 806,784.5C 804.512,782.84 802.679,781.84 800.5,781.5 Z M 873.5,783.5 C 866.274,787.041 859.774,791.708 854,797.5C 851.914,801.667 852.247,805.667 855,809.5C 860.286,814.642 866.62,817.642 874,818.5C 880.476,818.53 883.643,815.364 883.5,809C 882.708,802.666 881.208,796.5 879,790.5C 878.099,787.33 876.265,784.996 873.5,783.5 Z M 832.5,827.5 C 819.024,828.988 807.524,834.654 798,844.5C 786.034,862.294 782.701,881.628 788,902.5C 796.071,915.908 807.238,925.741 821.5,932C 834.487,933.502 847.154,932.169 859.5,928C 886.884,909.334 895.218,884.168 884.5,852.5C 875.402,846.238 866.736,839.405 858.5,832C 850.238,828.248 841.571,826.748 832.5,827.5 Z M 753.5,835.5 C 751.031,836.317 748.365,836.817 745.5,837C 743.671,837.273 742.171,838.107 741,839.5C 740.159,843.12 740.826,846.454 743,849.5C 748.249,860.207 756.749,864.707 768.5,863C 769.333,862.167 770.167,861.333 771,860.5C 773.158,853.095 772.991,845.762 770.5,838.5C 769.975,837.808 769.308,837.308 768.5,837C 763.536,836.088 758.536,835.588 753.5,835.5 Z M 909.5,835.5 C 906.099,835.701 903.599,837.368 902,840.5C 900.361,848.09 901.861,854.923 906.5,861C 915.15,865.602 921.65,863.435 926,854.5C 930.064,848.167 929.231,842.667 923.5,838C 918.955,836.458 914.289,835.624 909.5,835.5 Z M 949.5,841.5 C 942.574,846.677 938.74,853.677 938,862.5C 931.716,865.208 928.216,870.041 927.5,877C 928.782,885.069 931.616,892.569 936,899.5C 940.013,907.513 946.013,913.513 954,917.5C 972.759,911.623 989.759,902.623 1005,890.5C 1009.49,877.981 1006.33,867.814 995.5,860C 980.832,852.167 965.499,846 949.5,841.5 Z M 716.5,845.5 C 701.138,849.572 686.804,856.072 673.5,865C 664.937,872.998 663.437,882.164 669,892.5C 675.587,899.091 682.753,904.924 690.5,910C 701.184,914.728 712.184,918.561 723.5,921.5C 725.149,920.352 726.649,919.019 728,917.5C 729.806,912.554 732.139,907.888 735,903.5C 753.764,887.256 752.764,872.256 732,858.5C 730.529,854.419 728.862,850.419 727,846.5C 723.606,845.544 720.106,845.211 716.5,845.5 Z M 761.5,893.5 C 752.704,900.138 745.871,908.472 741,918.5C 740.257,920.441 740.424,922.274 741.5,924C 752.084,929.635 762.917,930.468 774,926.5C 774.5,925 775,923.5 775.5,922C 774.614,916.34 773.114,910.84 771,905.5C 769.049,900.399 765.883,896.399 761.5,893.5 Z M 910.5,894.5 C 901.645,902.893 897.811,913.226 899,925.5C 909.817,928.706 920.317,927.539 930.5,922C 931.167,921 931.833,920 932.5,919C 931.242,914.891 929.408,911.058 927,907.5C 923.067,901.055 917.567,896.722 910.5,894.5 Z M 938.5,935.5 C 926.58,937.206 914.58,939.206 902.5,941.5C 897.49,956.707 893.49,972.207 890.5,988C 890.585,989.107 890.919,990.107 891.5,991C 900.167,995.333 908.833,999.667 917.5,1004C 927.102,1008.07 937.102,1010.57 947.5,1011.5C 952.876,1011.25 957.71,1009.58 962,1006.5C 964.199,1001.71 964.866,996.709 964,991.5C 961.891,972.061 956.224,953.728 947,936.5C 944.281,935.556 941.448,935.223 938.5,935.5 Z M 741.5,939.5 C 734.567,939.542 728.734,942.209 724,947.5C 713.102,965.222 710.102,984.222 715,1004.5C 717.563,1010.07 721.896,1012.73 728,1012.5C 747.971,1010.51 766.638,1004.51 784,994.5C 783.376,977.384 781.543,960.384 778.5,943.5C 766.172,941.701 753.839,940.368 741.5,939.5 Z M 878.5,940.5 C 873.35,942.291 868.016,943.791 862.5,945C 857.772,949.617 854.439,955.117 852.5,961.5C 853.639,964.947 855.639,967.781 858.5,970C 862.156,973.163 866.156,975.829 870.5,978C 873.956,979.123 876.79,978.29 879,975.5C 882.742,964.82 884.076,953.82 883,942.5C 881.951,940.893 880.451,940.227 878.5,940.5 Z M 796.5,944.5 C 792.681,955.043 792.515,965.71 796,976.5C 799.542,980.216 803.375,980.382 807.5,977C 811,973.5 814.5,970 818,966.5C 823.108,960.771 822.608,955.604 816.5,951C 810.453,946.804 803.787,944.637 796.5,944.5 Z M 831.5,974.5 C 822.044,979 813.877,985.334 807,993.5C 803.752,999.452 802.752,1005.79 804,1012.5C 809.112,1028.23 816.945,1042.4 827.5,1055C 839.13,1060.68 848.63,1058.18 856,1047.5C 864.64,1033.25 871.14,1018.08 875.5,1002C 875.091,999.679 874.257,997.513 873,995.5C 862.099,982.466 848.265,975.466 831.5,974.5 Z"/></g>
<g><path style="opacity:0.976" fill="#101114" d="M 355.5,754.5 C 358.645,755.077 360.145,757.077 360,760.5C 361.887,775.803 363.554,791.136 365,806.5C 365.557,810.175 366.89,813.508 369,816.5C 370.74,815.284 371.74,813.618 372,811.5C 375.062,795.918 379.062,780.585 384,765.5C 387.064,756.544 392.064,755.21 399,761.5C 399.167,762.667 399.333,763.833 399.5,765C 396.621,771.275 394.121,777.775 392,784.5C 389.872,792.728 388.872,801.061 389,809.5C 393,806.833 396.333,803.5 399,799.5C 402.449,788.758 408.282,779.591 416.5,772C 422.755,767.628 425.255,769.128 424,776.5C 420.608,784.951 416.941,793.284 413,801.5C 412.333,802.833 412.333,804.167 413,805.5C 420.221,798.279 427.387,791.113 434.5,784C 437.93,781.581 441.596,781.081 445.5,782.5C 446.782,785.727 446.282,788.727 444,791.5C 438.612,796.385 433.779,801.718 429.5,807.5C 430.436,808.974 431.77,809.974 433.5,810.5C 436.161,809.668 438.828,808.834 441.5,808C 446.824,802.348 453.324,798.848 461,797.5C 465.804,797.633 467.471,799.967 466,804.5C 464.5,806 463,807.5 461.5,809C 455.156,812.504 449.156,816.504 443.5,821C 448.323,820.507 452.99,819.174 457.5,817C 470.591,810.121 483.924,803.788 497.5,798C 498.635,797.251 499.635,797.417 500.5,798.5C 501.976,807.081 502.81,815.747 503,824.5C 504.626,888.731 504.793,952.897 503.5,1017C 469.064,1032.22 434.398,1046.88 399.5,1061C 385.252,1066.64 370.752,1071.47 356,1075.5C 338.899,1070.47 322.066,1064.63 305.5,1058C 273.167,1044.83 240.833,1031.67 208.5,1018.5C 206.972,977.685 206.305,936.852 206.5,896C 206.667,867.167 206.833,838.333 207,809.5C 207.273,804.555 209.773,802.721 214.5,804C 230.53,810.965 247.03,816.465 264,820.5C 264.265,818.837 263.765,817.337 262.5,816C 258.8,812.657 254.467,810.657 249.5,810C 246.806,807.347 245.973,804.18 247,800.5C 248.062,797.936 249.896,796.269 252.5,795.5C 259.913,798.04 266.58,801.873 272.5,807C 275.674,808.725 279.007,810.058 282.5,811C 284.631,813.448 286.631,815.948 288.5,818.5C 289.583,817.635 289.749,816.635 289,815.5C 284.744,809.24 279.744,803.573 274,798.5C 270.962,794.793 268.795,790.626 267.5,786C 267.439,784.289 268.106,782.956 269.5,782C 272.303,781.245 274.97,781.578 277.5,783C 284.685,789.686 292.018,796.186 299.5,802.5C 300.512,800.163 300.345,797.83 299,795.5C 295.333,789.833 291.667,784.167 288,778.5C 287.182,775.773 287.348,773.106 288.5,770.5C 294.915,770.293 300.082,772.959 304,778.5C 311.002,793.007 320.502,805.674 332.5,816.5C 332.833,816.167 333.167,815.833 333.5,815.5C 324.993,800.159 320.326,783.659 319.5,766C 319.631,763.747 320.131,761.581 321,759.5C 322.726,758.424 324.559,758.257 326.5,759C 328.377,761.251 329.877,763.751 331,766.5C 334.961,778.597 337.961,790.93 340,803.5C 340.806,806.446 342.139,809.112 344,811.5C 346.11,808.508 347.443,805.175 348,801.5C 349.453,790.182 350.787,778.849 352,767.5C 352.706,763.006 353.873,758.673 355.5,754.5 Z M 481.5,832.5 C 449.494,847.328 416.827,860.828 383.5,873C 379,874.833 375.833,878 374,882.5C 372.556,891.939 371.723,901.439 371.5,911C 372.379,948.88 374.212,986.714 377,1024.5C 377.15,1030.4 378.15,1036.06 380,1041.5C 413.991,1027.59 447.825,1013.26 481.5,998.5C 482.831,943.001 482.831,887.668 481.5,832.5 Z M 231.5,836.5 C 231.5,891.167 231.5,945.833 231.5,1000.5C 267.366,1013.57 303.032,1027.23 338.5,1041.5C 339.672,1041.08 340.672,1040.41 341.5,1039.5C 343.787,1034.43 344.954,1029.1 345,1023.5C 345.374,974.151 344.874,924.818 343.5,875.5C 306.023,862.897 268.69,849.897 231.5,836.5 Z"/></g>
<g><path style="opacity:0.989" fill="#101114" d="M 345.5,1178.5 C 347.655,1178.37 349.655,1178.87 351.5,1180C 389.767,1202.72 428.6,1224.55 468,1245.5C 479.899,1240.53 491.732,1235.37 503.5,1230C 535.272,1214.03 567.105,1198.2 599,1182.5C 640.223,1203.11 681.556,1223.44 723,1243.5C 765.216,1222.98 807.382,1202.31 849.5,1181.5C 892.393,1204.78 935.727,1227.28 979.5,1249C 984.356,1251.26 988.689,1254.26 992.5,1258C 983.328,1259.31 973.994,1259.97 964.5,1260C 738.836,1261.57 513.169,1261.9 287.5,1261C 264.323,1260.78 241.156,1260.28 218,1259.5C 216.167,1259.17 214.333,1258.83 212.5,1258.5C 215.607,1255.44 218.941,1252.61 222.5,1250C 263.235,1225.64 304.235,1201.8 345.5,1178.5 Z"/></g>
<g><path style="opacity:0.98" fill="#101114" d="M 858.5,1343.5 C 873.184,1352.85 884.851,1365.19 893.5,1380.5C 891.326,1386.17 887.326,1390.01 881.5,1392C 863.086,1399.19 844.753,1399.19 826.5,1392C 821.711,1388.08 821.211,1383.58 825,1378.5C 836.006,1366.66 847.173,1354.99 858.5,1343.5 Z"/></g>
<g><path style="opacity:0.976" fill="#101114" d="M 339.5,1348.5 C 352.181,1358.68 363.348,1370.35 373,1383.5C 373.991,1385.45 374.325,1387.45 374,1389.5C 371.592,1391.96 368.759,1393.79 365.5,1395C 352.019,1400.56 338.019,1402.9 323.5,1402C 313.453,1399.6 305.62,1394.43 300,1386.5C 313.366,1373.97 326.532,1361.3 339.5,1348.5 Z"/></g>
<g><path style="opacity:0.978" fill="#101114" d="M 728.5,1347.5 C 741.195,1359.03 753.028,1371.36 764,1384.5C 764.63,1386.9 763.797,1388.74 761.5,1390C 750.456,1395.79 738.79,1399.79 726.5,1402C 716.241,1402.87 706.574,1400.87 697.5,1396C 693.251,1392.62 692.418,1388.46 695,1383.5C 705.638,1371.03 716.804,1359.03 728.5,1347.5 Z"/></g>
<g><path style="opacity:0.978" fill="#101114" d="M 463.5,1352.5 C 466.564,1352.14 469.231,1352.98 471.5,1355C 482.275,1364.77 491.942,1375.44 500.5,1387C 497.399,1392.24 492.732,1395.58 486.5,1397C 473.427,1400.96 460.094,1402.3 446.5,1401C 439.689,1400.07 433.856,1397.24 429,1392.5C 428.245,1389.7 428.578,1387.03 430,1384.5C 440.295,1372.8 451.462,1362.13 463.5,1352.5 Z"/></g>
<g><path style="opacity:0.98" fill="#101114" d="M 594.5,1352.5 C 597.893,1352.06 600.893,1352.9 603.5,1355C 613.082,1362.58 621.248,1371.41 628,1381.5C 629.885,1383.91 630.552,1386.58 630,1389.5C 620.651,1396.29 610.151,1400.12 598.5,1401C 586.074,1403.13 574.407,1401.13 563.5,1395C 559.68,1391.04 559.513,1386.88 563,1382.5C 572.435,1371.23 582.935,1361.23 594.5,1352.5 Z"/></g>
<g><path style="opacity:0.957" fill="#101114" d="M 1009.5,1394.5 C 1022.83,1397.11 1035.49,1401.61 1047.5,1408C 1041.02,1413.41 1034.02,1418.08 1026.5,1422C 1023.83,1422.67 1021.17,1422.67 1018.5,1422C 1017.17,1418 1015.83,1414 1014.5,1410C 1010.05,1409.42 1005.72,1409.92 1001.5,1411.5C 1000.5,1411.17 999.833,1410.5 999.5,1409.5C 1002.89,1404.46 1006.22,1399.46 1009.5,1394.5 Z"/></g>
<g><path style="opacity:0.96" fill="#101114" d="M 191.5,1408.5 C 195.158,1407.87 197.658,1409.21 199,1412.5C 201.139,1418.42 202.972,1424.42 204.5,1430.5C 204.61,1432.37 203.944,1433.87 202.5,1435C 191.123,1435.87 181.289,1432.37 173,1424.5C 172.613,1420.83 174.113,1418 177.5,1416C 182.101,1413.2 186.768,1410.7 191.5,1408.5 Z"/></g>
<g><path style="opacity:0.957" fill="#101114" d="M 259.5,1460.5 C 265.865,1462.2 269.865,1466.2 271.5,1472.5C 265.96,1472.53 264.293,1475.03 266.5,1480C 264.917,1484.22 261.75,1486.06 257,1485.5C 250.979,1485.32 245.979,1482.99 242,1478.5C 241.333,1476.17 241.333,1473.83 242,1471.5C 247.256,1466.71 253.089,1463.04 259.5,1460.5 Z"/></g>
<g><path style="opacity:0.944" fill="#101114" d="M 431.5,1563.5 C 438.734,1563.74 445.234,1566.08 451,1570.5C 451.678,1578.81 449.678,1586.48 445,1593.5C 442.966,1596.86 440.632,1597.19 438,1594.5C 432.791,1584.68 430.624,1574.35 431.5,1563.5 Z"/></g>
<g><path style="opacity:0.941" fill="#101114" d="M 784.5,1583.5 C 788.33,1584.49 791.163,1586.82 793,1590.5C 795.33,1593.47 795.83,1596.63 794.5,1600C 786.517,1601.82 778.517,1601.82 770.5,1600C 769.328,1599.58 768.328,1598.91 767.5,1598C 771.839,1591.49 777.506,1586.65 784.5,1583.5 Z"/></g>
<g><path style="opacity:0.932" fill="#101114" d="M 587.5,1608.5 C 599.051,1608.75 602.384,1614.25 597.5,1625C 588.966,1624.4 581.632,1621.07 575.5,1615C 575.759,1613.74 576.426,1612.74 577.5,1612C 580.98,1610.9 584.313,1609.73 587.5,1608.5 Z"/></g>
<g><path style="opacity:0.87" fill="#111114" d="M 685.5,1622.5 C 692.628,1622.71 694.294,1625.87 690.5,1632C 685.932,1633.65 683.266,1632.15 682.5,1627.5C 682.757,1625.31 683.757,1623.64 685.5,1622.5 Z"/></g>
</svg>
