<?xml version="1.0" encoding="UTF-8"?>
<svg version="1.1" xmlns="http://www.w3.org/2000/svg" width="200" height="200">
<path d="M0 0 C66 0 132 0 200 0 C200 66 200 132 200 200 C134 200 68 200 0 200 C0 134 0 68 0 0 Z " fill="#565855" transform="translate(0,0)"/>
<path d="M0 0 C32.01 0 64.02 0 97 0 C97 5.61 97 11.22 97 17 C84.93261063 23.58356341 72.65529899 29.59402577 60.13769531 35.26831055 C54.31155676 37.92576696 48.53522362 40.66294244 42.8359375 43.58203125 C41.78712402 44.11675049 40.73831055 44.65146973 39.65771484 45.20239258 C36.12124688 47.59436517 34.48883232 49.98558616 33.48291016 54.13085938 C33.21560753 62.72245864 36.90974146 69.86557735 40.375 77.5 C41.05057897 79.02524096 41.72411363 80.55138882 42.39575195 82.07836914 C43.83275819 85.34206223 45.27799562 88.60193812 46.72802734 91.85986328 C50.24501296 99.78735332 53.63530086 107.76945315 57.03897095 115.74606323 C58.92926264 120.17572965 60.82318944 124.60383597 62.71875 129.03125 C63.08208939 129.88009262 63.44542877 130.72893524 63.81977844 131.60350037 C66.13617506 137.00718511 68.4812353 142.3975942 70.84375 147.78125 C71.69372356 149.72759681 72.54292036 151.67428015 73.39175415 153.62112427 C74.16656819 155.38972089 74.95167634 157.15379648 75.73706055 158.91772461 C76.18863525 159.95421143 76.64020996 160.99069824 77.10546875 162.05859375 C77.49887451 162.94861084 77.89228027 163.83862793 78.29760742 164.75561523 C79 167 79 167 78 170 C68.71159105 150.94594846 59.43039152 131.89000824 50.31396484 112.75292969 C48.88682304 109.76287934 47.45391853 106.77564365 46.01953125 103.7890625 C45.51164063 102.73138672 45.00375 101.67371094 44.48046875 100.58398438 C43.46268734 98.4672567 42.44319312 96.35135161 41.421875 94.23632812 C38.97297353 89.15629623 36.56132505 84.0650768 34.23046875 78.9296875 C33.79033447 77.97143066 33.3502002 77.01317383 32.89672852 76.02587891 C32.07599346 74.23441076 31.26698252 72.43750279 30.47241211 70.63427734 C28.05568199 65.39232602 25.99662014 62.02897737 21 59 C13.3820167 56.37343383 7.31940055 59.41560141 0.375 62.625 C-1.91344421 63.6394168 -4.20253705 64.65237127 -6.4921875 65.6640625 C-7.08914429 65.93132141 -7.68610107 66.19858032 -8.30114746 66.47393799 C-12.96630979 68.56121109 -17.6643286 70.55993478 -22.3828125 72.5234375 C-23.43035202 72.95941757 -23.43035202 72.95941757 -24.49905396 73.40420532 C-26.58238831 74.27022913 -28.66616697 75.13517689 -30.75 76 C-33.35031951 77.08010148 -35.94912148 78.16374319 -38.546875 79.25 C-40.19961426 79.93835938 -40.19961426 79.93835938 -41.88574219 80.640625 C-44.04709393 81.58405605 -46.17745956 82.60047982 -48.27832031 83.671875 C-51 85 -51 85 -53 85 C-53 111.4 -53 137.8 -53 165 C-47.15023437 164.95359375 -41.30046875 164.9071875 -35.2734375 164.859375 C-31.5637843 164.83893278 -27.8542007 164.81967677 -24.14453125 164.8046875 C-18.25847928 164.78079153 -12.37267661 164.75254611 -6.48681641 164.69824219 C-1.74057918 164.65472749 3.00539064 164.63085086 7.75181198 164.62049103 C9.56110213 164.61310976 11.37037791 164.59869573 13.17955399 164.57707977 C15.71719037 164.54797062 18.25372697 164.54404707 20.79150391 164.54589844 C21.53669281 164.53151733 22.28188171 164.51713623 23.0496521 164.50231934 C28.17401947 164.54267567 31.06882143 165.75038984 35 169 C37.51250583 172.76875875 37.53016086 174.53150134 37 179 C34.98670074 182.47681295 32.88463861 184.70512046 29 186 C26.00396304 186.11228285 23.03060568 186.16771998 20.03393555 186.17700195 C19.11654602 186.18357315 18.19915649 186.19014435 17.25396729 186.19691467 C14.21488362 186.21664229 11.17584934 186.22830855 8.13671875 186.23828125 C7.09886545 186.24235678 6.06101215 186.2464323 4.99170876 186.25063133 C-0.50056128 186.27148888 -5.99280635 186.28579249 -11.48510742 186.29516602 C-17.15800255 186.30623518 -22.83050595 186.34064205 -28.50326252 186.38033772 C-32.86560293 186.40647894 -37.2278496 186.4148556 -41.59026146 186.41844749 C-43.6814355 186.42331918 -45.7726052 186.43494966 -47.86370277 186.45348549 C-50.79136881 186.47782552 -53.71801577 186.47692126 -56.64575195 186.4699707 C-57.50778732 186.48278076 -58.36982269 186.49559082 -59.25798035 186.50878906 C-64.61870778 186.46244785 -67.80032217 185.6577689 -72 182 C-73.25048455 178.24854634 -73.13143947 174.76323916 -73.11352539 170.85668945 C-73.11367142 170.02719788 -73.11381744 169.1977063 -73.1139679 168.34307861 C-73.11327092 165.59978628 -73.10548853 162.85656173 -73.09765625 160.11328125 C-73.09579131 158.21184832 -73.09436776 156.31041491 -73.09336853 154.40898132 C-73.08954936 149.40305252 -73.07972416 144.3971527 -73.06866455 139.39123535 C-73.05843756 134.28361402 -73.05386815 129.175988 -73.04882812 124.06835938 C-73.03810138 114.04556018 -73.02103212 104.0227825 -73 94 C-74.12019531 94.51691406 -75.24039063 95.03382812 -76.39453125 95.56640625 C-77.86695717 96.23228039 -79.33962619 96.89761715 -80.8125 97.5625 C-81.55048828 97.90474609 -82.28847656 98.24699219 -83.04882812 98.59960938 C-84.11713867 99.07817383 -84.11713867 99.07817383 -85.20703125 99.56640625 C-85.8616333 99.86490479 -86.51623535 100.16340332 -87.19067383 100.47094727 C-89 101 -89 101 -92 100 C-86.06 97.03 -80.12 94.06 -74 91 C-73.98541748 89.39036377 -73.97083496 87.78072754 -73.95581055 86.12231445 C-73.89782921 80.14910694 -73.82059541 74.17627644 -73.73754883 68.20336914 C-73.70429889 65.61847046 -73.67626723 63.03349916 -73.65356445 60.44848633 C-73.62002073 56.73226991 -73.56770272 53.01671899 -73.51171875 49.30078125 C-73.50532883 48.14540359 -73.4989389 46.99002594 -73.49235535 45.79963684 C-73.47256119 44.71889389 -73.45276703 43.63815094 -73.43237305 42.5246582 C-73.42126999 41.57645706 -73.41016693 40.62825592 -73.39872742 39.65132141 C-72.92330379 36.49001172 -71.85957692 34.58018184 -70 32 C-66.54260443 30.27130221 -62.78024432 30.51033105 -59 31 C-56.12970131 32.79393668 -54.50868362 33.98263276 -53 37 C-52.91065594 38.41973273 -52.88241022 39.84357791 -52.88647461 41.26611328 C-52.88655014 42.14687531 -52.88662567 43.02763733 -52.88670349 43.93508911 C-52.89186478 44.88721283 -52.89702606 45.83933655 -52.90234375 46.8203125 C-52.9037587 47.79410858 -52.90517365 48.76790466 -52.90663147 49.77120972 C-52.91224027 52.88917073 -52.92479427 56.0070606 -52.9375 59.125 C-52.94251387 61.23567605 -52.94707697 63.34635322 -52.95117188 65.45703125 C-52.96221255 70.63804521 -52.97895927 75.81901752 -53 81 C-52.07590332 80.54786133 -51.15180664 80.09572266 -50.19970703 79.62988281 C-46.64227993 77.89034759 -43.08319781 76.15422238 -39.52349854 74.41934204 C-37.92728647 73.64113941 -36.33137857 72.86231254 -34.73577881 72.08285522 C-26.55667249 68.08938738 -18.37546166 64.11871968 -10.0625 60.41015625 C-8.88155762 59.88067383 -7.70061523 59.35119141 -6.48388672 58.80566406 C-4.29882997 57.83431597 -2.10796333 56.87589881 0.08935547 55.93261719 C5.82146468 53.38228636 9.53419716 51.30021312 13 46 C15.99458392 37.01624824 12.39160236 30.26944559 8.6875 22.0625 C7.68822781 19.80478954 6.6920688 17.54569827 5.69921875 15.28515625 C5.25408936 14.29394775 4.80895996 13.30273926 4.3503418 12.28149414 C2.69761926 8.26517817 1.37340037 4.12020111 0 0 Z " fill="#FCC828" transform="translate(103,0)"/>
<path d="M0 0 C30.36 0 60.72 0 92 0 C92 4.62 92 9.24 92 14 C90.52917969 14.62003906 89.05835938 15.24007813 87.54296875 15.87890625 C86.54885986 16.29873779 85.55475098 16.71856934 84.53051758 17.15112305 C82.26922619 18.10580979 80.00732707 19.05905812 77.74487305 20.01098633 C71.51019158 22.64139208 65.29096638 25.3008007 59.09751892 28.02705383 C55.94891537 29.41248965 52.79634046 30.78877179 49.64370728 32.16500854 C48.09576704 32.84395103 46.54981825 33.52745297 45.00595093 34.21560669 C42.81747933 35.19055482 40.62255118 36.14939565 38.42578125 37.10546875 C37.77876251 37.39870026 37.13174377 37.69193176 36.46511841 37.99404907 C30.77948317 40.4370324 26.26186067 40.83266299 20.4453125 38.69140625 C15.45819658 35.51841988 13.37151913 30.09107557 10.875 24.9375 C10.37613281 23.95072266 9.87726563 22.96394531 9.36328125 21.94726562 C0 3.28182115 0 3.28182115 0 0 Z " fill="#575854" transform="translate(108,0)"/>
<path d="M0 0 C1.65 0 3.3 0 5 0 C5.46374023 0.9787207 5.92748047 1.95744141 6.40527344 2.96582031 C8.13368734 6.60779892 9.87326727 10.24434999 11.61621094 13.87939453 C12.36795105 15.45118534 13.11668533 17.02441753 13.86230469 18.59912109 C14.93671719 20.86684776 16.02195603 23.12911191 17.109375 25.390625 C17.43871033 26.09181458 17.76804565 26.79300415 18.10736084 27.51544189 C20.32653267 32.09470975 22.61998743 35.35861202 26.8125 38.25 C33.79574757 40.64425631 39.50649842 37.89200178 45.81640625 35.0546875 C46.74992416 34.64719269 47.68344208 34.23969788 48.64524841 33.81985474 C51.62307297 32.51683043 54.59278036 31.19637684 57.5625 29.875 C59.53137996 29.00923068 61.50077686 28.14463596 63.47070312 27.28125 C67.2636497 25.61693829 71.05494554 23.94898157 74.84423828 22.27636719 C76.1565744 21.69719543 76.1565744 21.69719543 77.49542236 21.10632324 C79.09523902 20.39965146 80.6946831 19.69213517 82.29364014 18.98352051 C84.26511566 18.11135066 86.23942084 17.24599501 88.21484375 16.3828125 C89.80800415 15.68115967 89.80800415 15.68115967 91.43334961 14.96533203 C94 14 94 14 97 14 C96.93579102 15.76635742 96.93579102 15.76635742 96 18 C93.67441468 19.4436701 91.49810691 20.60106592 89.02734375 21.73828125 C88.31327866 22.08055252 87.59921356 22.42282379 86.86351013 22.77546692 C84.58212183 23.86456284 82.2918191 24.93305493 80 26 C78.54659358 26.68704944 77.0936234 27.37502254 75.64111328 28.06396484 C70.54630027 30.47309538 65.43746931 32.85187445 60.32641602 35.22631836 C46.65472836 40.77021936 46.65472836 40.77021936 34.9375 49.1875 C31.5065831 59.48025069 36.17388208 68.24438184 40.375 77.5 C41.05057897 79.02524096 41.72411363 80.55138882 42.39575195 82.07836914 C43.83275819 85.34206223 45.27799562 88.60193812 46.72802734 91.85986328 C50.24501296 99.78735332 53.63530086 107.76945315 57.03897095 115.74606323 C58.92926264 120.17572965 60.82318944 124.60383597 62.71875 129.03125 C63.08208939 129.88009262 63.44542877 130.72893524 63.81977844 131.60350037 C66.13617506 137.00718511 68.4812353 142.3975942 70.84375 147.78125 C71.69372356 149.72759681 72.54292036 151.67428015 73.39175415 153.62112427 C74.16656819 155.38972089 74.95167634 157.15379648 75.73706055 158.91772461 C76.18863525 159.95421143 76.64020996 160.99069824 77.10546875 162.05859375 C77.49887451 162.94861084 77.89228027 163.83862793 78.29760742 164.75561523 C79 167 79 167 78 170 C68.71159105 150.94594846 59.43039152 131.89000824 50.31396484 112.75292969 C48.88682304 109.76287934 47.45391853 106.77564365 46.01953125 103.7890625 C45.51164062 102.73138672 45.00375 101.67371094 44.48046875 100.58398438 C43.46268734 98.4672567 42.44319312 96.35135161 41.421875 94.23632812 C38.97297353 89.15629623 36.56132505 84.0650768 34.23046875 78.9296875 C33.79033447 77.97143066 33.3502002 77.01317383 32.89672852 76.02587891 C32.07599346 74.23441076 31.26698252 72.43750279 30.47241211 70.63427734 C28.05568199 65.39232602 25.99662014 62.02897737 21 59 C13.3820167 56.37343383 7.31940055 59.41560141 0.375 62.625 C-1.91344421 63.6394168 -4.20253705 64.65237127 -6.4921875 65.6640625 C-7.38762268 66.06495087 -7.38762268 66.06495087 -8.30114746 66.47393799 C-12.96630979 68.56121109 -17.6643286 70.55993478 -22.3828125 72.5234375 C-23.08117218 72.81409088 -23.77953186 73.10474426 -24.49905396 73.40420532 C-26.58238831 74.27022913 -28.66616697 75.13517689 -30.75 76 C-33.35031951 77.08010148 -35.94912148 78.16374319 -38.546875 79.25 C-40.19961426 79.93835938 -40.19961426 79.93835938 -41.88574219 80.640625 C-44.04709393 81.58405605 -46.17745956 82.60047982 -48.27832031 83.671875 C-51 85 -51 85 -53 85 C-54.13212683 82.73574633 -54.14694379 81.43639868 -54.18945312 78.92089844 C-54.20617065 78.07952332 -54.22288818 77.23814819 -54.2401123 76.37127686 C-54.25368774 75.45984924 -54.26726318 74.54842163 -54.28125 73.609375 C-54.29965942 72.672005 -54.31806885 71.73463501 -54.33703613 70.76885986 C-54.39588978 67.76263819 -54.44862157 64.75635816 -54.5 61.75 C-54.56785942 57.80717721 -54.64163336 53.86452628 -54.71875 49.921875 C-54.73911316 48.56687897 -54.73911316 48.56687897 -54.7598877 47.18450928 C-54.84786859 42.69016948 -55.10328861 38.42365517 -56 34 C-54.05299358 35.6146196 -53.08907172 36.4985077 -52.63923645 39.03117371 C-52.64589828 39.80616714 -52.65256012 40.58116058 -52.65942383 41.37963867 C-52.65965042 42.26032516 -52.65987701 43.14101166 -52.66011047 44.04838562 C-52.67559433 44.99534805 -52.69107819 45.94231049 -52.70703125 46.91796875 C-52.71127609 47.89034988 -52.71552094 48.86273102 -52.71989441 49.86457825 C-52.73669685 52.97249966 -52.77435221 56.07977434 -52.8125 59.1875 C-52.8275448 61.29361043 -52.84123356 63.39973102 -52.85351562 65.50585938 C-52.88660556 70.67082238 -52.93839891 75.83530151 -53 81 C-52.07590332 80.54786133 -51.15180664 80.09572266 -50.19970703 79.62988281 C-46.64227993 77.89034759 -43.08319781 76.15422238 -39.52349854 74.41934204 C-37.92728647 73.64113941 -36.33137857 72.86231254 -34.73577881 72.08285522 C-26.55667249 68.08938738 -18.37546166 64.11871968 -10.0625 60.41015625 C-8.88155762 59.88067383 -7.70061523 59.35119141 -6.48388672 58.80566406 C-4.29882997 57.83431597 -2.10796333 56.87589881 0.08935547 55.93261719 C5.82146468 53.38228636 9.53419716 51.30021312 13 46 C15.99458392 37.01624824 12.39160236 30.26944559 8.6875 22.0625 C7.68822781 19.80478954 6.6920688 17.54569827 5.69921875 15.28515625 C5.2304834 14.21797363 4.76174805 13.15079102 4.27880859 12.05126953 C2.61899078 8.09090241 1.27370673 4.099336 0 0 Z " fill="#F7C72F" transform="translate(103,0)"/>
<path d="M0 0 C0.99 0.33 1.98 0.66 3 1 C2.67 1.66 2.34 2.32 2 3 C0.36174682 12.35718508 4.62511255 20.23850223 8.375 28.5 C9.05057897 30.02524096 9.72411363 31.55138882 10.39575195 33.07836914 C11.83275819 36.34206223 13.27799562 39.60193812 14.72802734 42.85986328 C18.24501296 50.78735332 21.63530086 58.76945315 25.03897095 66.74606323 C26.92926264 71.17572965 28.82318944 75.60383597 30.71875 80.03125 C31.08208939 80.88009262 31.44542877 81.72893524 31.81977844 82.60350037 C34.13617506 88.00718511 36.4812353 93.3975942 38.84375 98.78125 C39.69372356 100.72759681 40.54292036 102.67428015 41.39175415 104.62112427 C42.16656819 106.38972089 42.95167634 108.15379648 43.73706055 109.91772461 C44.41442261 111.47245483 44.41442261 111.47245483 45.10546875 113.05859375 C45.49887451 113.94861084 45.89228027 114.83862793 46.29760742 115.75561523 C47 118 47 118 46 121 C27.67729642 83.41318183 27.67729642 83.41318183 19.58984375 66.42578125 C17.70017891 62.45799839 15.79337785 58.49884148 13.87890625 54.54296875 C8.68013513 43.78992114 3.51216556 33.0627217 -1 22 C-0.34 21.67 0.32 21.34 1 21 C0.83701416 20.42475586 0.67402832 19.84951172 0.50610352 19.25683594 C0.00962472 17.04291893 -0.11479744 15.15326203 -0.09765625 12.890625 C-0.09443359 12.13652344 -0.09121094 11.38242187 -0.08789062 10.60546875 C-0.07951172 9.82816406 -0.07113281 9.05085938 -0.0625 8.25 C-0.05798828 7.45722656 -0.05347656 6.66445313 -0.04882812 5.84765625 C-0.03708565 3.89840492 -0.01915146 1.94919262 0 0 Z " fill="#EEC43B" transform="translate(135,49)"/>
<path d="M0 0 C0.33 0 0.66 0 1 0 C1.00808685 1.03094788 1.01617371 2.06189575 1.02450562 3.12408447 C1.10196054 12.83560408 1.18969823 22.54698348 1.28752708 32.25831985 C1.33749183 37.25112372 1.38382193 42.24390642 1.421875 47.23681641 C1.45872545 52.05444856 1.50508487 56.87190361 1.55806351 61.68938446 C1.57660871 63.52816413 1.59171621 65.36698176 1.60334396 67.20581818 C1.62020421 69.77964955 1.64923866 72.35307523 1.68115234 74.92675781 C1.68331253 75.68848801 1.68547272 76.4502182 1.68769836 77.23503113 C1.74642407 80.93777044 1.81333724 83.91725902 4 87 C7.40388926 88.70194463 11.29269407 88.18110512 15.03955078 88.20532227 C15.97618561 88.21522186 16.91282043 88.22512146 17.87783813 88.23532104 C20.98363693 88.26698922 24.08945104 88.29171448 27.1953125 88.31640625 C29.34480189 88.33697119 31.49428719 88.35796753 33.64376831 88.37937927 C39.30890601 88.4346475 44.97408049 88.48403581 50.63928223 88.53222656 C56.41710698 88.58240694 62.19487813 88.63811106 67.97265625 88.69335938 C79.31505841 88.80099904 90.65750705 88.90243109 102 89 C102 88.34 102 87.68 102 87 C101.34 87 100.68 87 100 87 C100.99 85.02 100.99 85.02 102 83 C103.98 83.33 105.96 83.66 108 84 C107.71872579 82.51882199 107.42466268 81.04006751 107.125 79.5625 C106.96257812 78.73878906 106.80015625 77.91507812 106.6328125 77.06640625 C106.31957031 76.04353516 106.31957031 76.04353516 106 75 C105.34 74.67 104.68 74.34 104 74 C104 73.34 104 72.68 104 72 C107.16115776 73.36983503 107.9927092 73.9890638 110 77 C110.43492196 80.29298055 110.69293789 82.80334957 108.984375 85.75390625 C106.82268515 88.45601856 105.31001789 89.8966607 102 91 C99.00396304 91.11228285 96.03060568 91.16771998 93.03393555 91.17700195 C92.11654602 91.18357315 91.19915649 91.19014435 90.25396729 91.19691467 C87.21488362 91.21664229 84.17584934 91.22830855 81.13671875 91.23828125 C80.09886545 91.24235678 79.06101215 91.2464323 77.99170876 91.25063133 C72.49943872 91.27148888 67.00719365 91.28579249 61.51489258 91.29516602 C55.84199745 91.30623518 50.16949405 91.34064205 44.49673748 91.38033772 C40.13439707 91.40647894 35.7721504 91.4148556 31.40973854 91.41844749 C29.3185645 91.42331918 27.2273948 91.43494966 25.13629723 91.45348549 C22.20863119 91.47782552 19.28198423 91.47692126 16.35424805 91.4699707 C15.49221268 91.48278076 14.63017731 91.49559082 13.74201965 91.50878906 C8.38129222 91.46244785 5.19967783 90.6577689 1 87 C-0.24166136 83.27501593 -0.13152545 79.82697035 -0.11352539 75.94848633 C-0.11367142 75.12874832 -0.11381744 74.30901031 -0.1139679 73.46443176 C-0.11327096 70.75360472 -0.10548878 68.0428463 -0.09765625 65.33203125 C-0.09579129 63.45301857 -0.09436776 61.5740054 -0.09336853 59.69499207 C-0.08954948 54.74824685 -0.07972438 49.80153098 -0.06866455 44.85479736 C-0.0584373 39.80749915 -0.05386809 34.76019621 -0.04882812 29.71289062 C-0.03810159 19.80858086 -0.02103248 9.90429287 0 0 Z " fill="#E5BD3E" transform="translate(30,95)"/>
<path d="M0 0 C0.00808685 1.05600403 0.01617371 2.11200806 0.02450562 3.20001221 C0.10195657 13.14698769 0.18969326 23.09382621 0.28752708 33.04062271 C0.33749435 38.15449556 0.38382443 43.26834771 0.421875 48.38232422 C0.45872226 53.31666323 0.50508083 58.25082923 0.55806351 63.18502045 C0.5766104 65.06845823 0.59171727 66.95193311 0.60334396 68.83542633 C0.62020128 71.47151952 0.64923511 74.10721622 0.68115234 76.74316406 C0.68331253 77.52359573 0.68547272 78.3040274 0.68769836 79.10810852 C0.76901507 84.35782259 1.29087102 87.29087102 5 91 C2.20171644 90.61402985 1.1794116 90.19863427 -0.75 88.0625 C-2 86 -2 86 -2 84 C-3.485 83.505 -3.485 83.505 -5 83 C-4.67 82.67 -4.34 82.34 -4 82 C-3.88116204 79.79836156 -3.83254276 77.59291725 -3.81054688 75.38818359 C-3.79810692 74.35144501 -3.79810692 74.35144501 -3.78541565 73.29376221 C-3.76797455 71.7872386 -3.75281895 70.28068725 -3.73963928 68.77412033 C-3.71864147 66.38609452 -3.69161076 63.9982055 -3.66296387 61.61026001 C-3.60316002 56.53189279 -3.55114393 51.45346077 -3.5 46.375 C-3.44067351 40.51070802 -3.37813962 34.64648146 -3.30812073 28.78230667 C-3.28167957 26.43654725 -3.26077587 24.09078098 -3.2401123 21.7449646 C-3.22349122 20.2927012 -3.20661783 18.84044067 -3.18945312 17.38818359 C-3.17692505 16.12767181 -3.16439697 14.86716003 -3.15148926 13.56845093 C-2.99943494 9.98668953 -2.56838767 6.53757012 -2 3 C-2.474375 3.45375 -2.94875 3.9075 -3.4375 4.375 C-6.55661783 6.35297716 -9.38022964 6.88927937 -12.9765625 7.5703125 C-15.05618664 7.9232327 -15.05618664 7.9232327 -17 9 C-18.423125 9.2165625 -18.423125 9.2165625 -19.875 9.4375 C-22.93287358 9.83059761 -22.93287358 9.83059761 -25.1875 11.125 C-27 12 -27 12 -30 11 C-24.25 8 -24.25 8 -22 8 C-22 7.01 -22 6.02 -22 5 C-20.68 5 -19.36 5 -18 5 C-18 4.34 -18 3.68 -18 3 C-16.68 3 -15.36 3 -14 3 C-14 2.34 -14 1.68 -14 1 C-12.35 1 -10.7 1 -9 1 C-9.639375 1.474375 -10.27875 1.94875 -10.9375 2.4375 C-12.88293306 3.83738726 -12.88293306 3.83738726 -14 5 C-13.15695313 4.6390625 -12.31390625 4.278125 -11.4453125 3.90625 C-10.34960938 3.4421875 -9.25390625 2.978125 -8.125 2.5 C-6.48917969 1.80390625 -6.48917969 1.80390625 -4.8203125 1.09375 C-2 0 -2 0 0 0 Z " fill="#706843" transform="translate(30,94)"/>
<path d="M0 0 C-0.06420898 1.76635742 -0.06420898 1.76635742 -1 4 C-3.32558532 5.4436701 -5.50189309 6.60106592 -7.97265625 7.73828125 C-8.68672134 8.08055252 -9.40078644 8.42282379 -10.13648987 8.77546692 C-12.41787817 9.86456284 -14.7081809 10.93305493 -17 12 C-18.45340642 12.68704944 -19.9063766 13.37502254 -21.35888672 14.06396484 C-26.45369973 16.47309538 -31.56253069 18.85187445 -36.67358398 21.22631836 C-44.599551 24.91214892 -52.430737 28.613122 -60 33 C-60.99 33.495 -60.99 33.495 -62 34 C-61.67 32.35 -61.34 30.7 -61 29 C-60.195625 28.87625 -59.39125 28.7525 -58.5625 28.625 C-57.716875 28.41875 -56.87125 28.2125 -56 28 C-55.67 27.34 -55.34 26.68 -55 26 C-56.32 25.34 -57.64 24.68 -59 24 C-50.38671875 20.30859375 -41.7734375 16.6171875 -33.16015625 12.92578125 C-32.23027893 12.52715881 -31.30040161 12.12853638 -30.34234619 11.71783447 C-28.49023233 10.92427994 -26.63781714 10.13142829 -24.78509521 9.33929443 C-20.72085063 7.60077788 -16.66015528 5.85604484 -12.61425781 4.07519531 C-11.96449982 3.79092682 -11.31474182 3.50665833 -10.64529419 3.21377563 C-8.95727821 2.47408134 -7.27173846 1.72874308 -5.58642578 0.98291016 C-3 0 -3 0 0 0 Z " fill="#E5C044" transform="translate(200,14)"/>
<path d="M0 0 C2.30624259 3.45936388 3.8563337 7.08911631 5.484375 10.89453125 C5.82245178 11.67833664 6.16052856 12.46214203 6.5088501 13.2696991 C7.59201665 15.78277817 8.67105239 18.29760714 9.75 20.8125 C10.46066848 22.46300649 11.17160332 24.11339831 11.8828125 25.76367188 C12.93045341 28.19461415 13.97652102 30.62616268 15.01721191 33.06008911 C16.61305027 36.79203659 18.22312272 40.5148811 19.88867188 44.21630859 C20.17550842 44.86129807 20.46234497 45.50628754 20.75787354 46.17082214 C21.52381211 47.88982391 22.29915 49.60462901 23.07519531 51.3190918 C24 54 24 54 23 57 C20.5787996 52.06227024 18.16206898 47.1223842 15.74902344 42.18066406 C14.93181581 40.5085512 14.11350049 38.83697913 13.29394531 37.16601562 C7.59966907 25.55360952 2.1693531 13.85564395 -3 2 C-2.01 2 -1.02 2 0 2 C0 1.34 0 0.68 0 0 Z " fill="#E6C047" transform="translate(158,113)"/>
<path d="M0 0 C0 3.63 0 7.26 0 11 C-4.455 11.495 -4.455 11.495 -9 12 C-9 11.01 -9 10.02 -9 9 C-11.97 8.505 -11.97 8.505 -15 8 C-15 8.66 -15 9.32 -15 10 C-16.32 9.67 -17.64 9.34 -19 9 C-1 0 -1 0 0 0 Z " fill="#5D5A4A" transform="translate(200,17)"/>
<path d="M0 0 C0.33 0 0.66 0 1 0 C1.07593214 7.77784995 1.12855012 15.55560468 1.16479492 23.33374023 C1.1799012 25.98091199 1.2003873 28.62805864 1.22631836 31.27514648 C1.26261991 35.07542101 1.27970803 38.87536526 1.29296875 42.67578125 C1.30845261 43.86335526 1.32393646 45.05092926 1.33988953 46.27449036 C1.34011612 47.37540512 1.34034271 48.47631989 1.34057617 49.6105957 C1.34723801 50.58100296 1.35389984 51.55141022 1.36076355 52.55122375 C0.93272897 55.45661955 0.31633699 56.25679465 -2 58 C-4.32681431 59.17459376 -6.60572138 60.23930042 -9 61.25 C-9.6290625 61.53101563 -10.258125 61.81203125 -10.90625 62.1015625 C-15.630218 64.12326067 -15.630218 64.12326067 -19 63 C-13.06 60.03 -7.12 57.06 -1 54 C-0.67 36.18 -0.34 18.36 0 0 Z " fill="#F4C845" transform="translate(30,37)"/>
<path d="M0 0 C1.65 0 3.3 0 5 0 C4.360625 0.474375 3.72125 0.94875 3.0625 1.4375 C1.11706694 2.83738726 1.11706694 2.83738726 0 4 C1.03125 3.505 2.0625 3.01 3.125 2.5 C6.52451578 1.02526098 9.27021549 0.72708894 13 1 C13 3.64 13 6.28 13 9 C12.67 9 12.34 9 12 9 C12 6.69 12 4.38 12 2 C11.525625 2.45375 11.05125 2.9075 10.5625 3.375 C7.44338217 5.35297716 4.61977036 5.88927937 1.0234375 6.5703125 C-1.05618664 6.9232327 -1.05618664 6.9232327 -3 8 C-4.423125 8.2165625 -4.423125 8.2165625 -5.875 8.4375 C-8.93287358 8.83059761 -8.93287358 8.83059761 -11.1875 10.125 C-13 11 -13 11 -16 10 C-10.25 7 -10.25 7 -8 7 C-8 6.01 -8 5.02 -8 4 C-6.68 4 -5.36 4 -4 4 C-4 3.34 -4 2.68 -4 2 C-2.68 2 -1.36 2 0 2 C0 1.34 0 0.68 0 0 Z " fill="#675D40" transform="translate(16,95)"/>
<path d="M0 0 C0.66 0 1.32 0 2 0 C2 1.32 2 2.64 2 4 C2.66 4.33 3.32 4.66 4 5 C5.62734766 8.34510352 6 10.18835834 6 14 C6.66 14 7.32 14 8 14 C8 14.99 8 15.98 8 17 C8.66 17 9.32 17 10 17 C12.23686747 23.15138553 12.88533098 29.48853347 12 36 C10.48046875 37.859375 10.48046875 37.859375 9 39 C9.165 38.34 9.33 37.68 9.5 37 C11.00866649 27.94800104 8.84034024 22.37157643 5 14.1875 C4.0578314 12.14146629 3.12010947 10.09337729 2.1875 8.04296875 C1.76855469 7.14602295 1.34960938 6.24907715 0.91796875 5.32495117 C0 3 0 3 0 0 Z M10 12 C12.15377564 14.62198774 13.40072174 16.64404172 14 20 C13.34 20 12.68 20 12 20 C12 19.01 12 18.02 12 17 C11.34 17 10.68 17 10 17 C10 15.35 10 13.7 10 12 Z " fill="#E8BF44" transform="translate(107,9)"/>
<path d="M0 0 C1.94700642 1.6146196 2.91092828 2.4985077 3.36076355 5.03117371 C3.35410172 5.80616714 3.34743988 6.58116058 3.34057617 7.37963867 C3.34034958 8.26032516 3.34012299 9.14101166 3.33988953 10.04838562 C3.32440567 10.99534805 3.30892181 11.94231049 3.29296875 12.91796875 C3.28872391 13.89034988 3.28447906 14.86273102 3.28010559 15.86457825 C3.26330315 18.97249966 3.22564779 22.07977434 3.1875 25.1875 C3.1724552 27.29361043 3.15876644 29.39973102 3.14648438 31.50585938 C3.11339444 36.67082238 3.06160109 41.83530151 3 47 C4.98 46.34 6.96 45.68 9 45 C9 45.66 9 46.32 9 47 C9.66 47.33 10.32 47.66 11 48 C5.25 51 5.25 51 3 51 C1.86787317 48.73574633 1.85305621 47.43639868 1.81054688 44.92089844 C1.79382935 44.07952332 1.77711182 43.23814819 1.7598877 42.37127686 C1.74631226 41.45984924 1.73273682 40.54842163 1.71875 39.609375 C1.69113586 38.20332001 1.69113586 38.20332001 1.66296387 36.76885986 C1.60411022 33.76263819 1.55137843 30.75635816 1.5 27.75 C1.43214058 23.80717721 1.35836664 19.86452628 1.28125 15.921875 C1.26088684 14.56687897 1.26088684 14.56687897 1.2401123 13.18450928 C1.15213141 8.69016948 0.89671139 4.42365517 0 0 Z " fill="#E2BE47" transform="translate(47,34)"/>
<path d="M0 0 C0.66 0 1.32 0 2 0 C2 0.99 2 1.98 2 3 C2.99 3 3.98 3 5 3 C5.5775 4.093125 6.155 5.18625 6.75 6.3125 C8.44144447 9.29669132 10.01791458 11.18944814 13 13 C11.01432292 13.16276042 9.02864583 13.32552083 7.04296875 13.48828125 C4.58488721 14.10397663 3.61863701 15.09542081 2 17 C1.90912109 15.93458984 1.90912109 15.93458984 1.81640625 14.84765625 C1.73261719 13.92855469 1.64882812 13.00945313 1.5625 12.0625 C1.48128906 11.14597656 1.40007812 10.22945312 1.31640625 9.28515625 C1.23955024 7.03840268 1.23955024 7.03840268 0 6 C-0.04080783 4.00041636 -0.04254356 1.99954746 0 0 Z " fill="#F0C438" transform="translate(117,26)"/>
<path d="M0 0 C0 0.66 0 1.32 0 2 C-1.32 2 -2.64 2 -4 2 C-4 2.66 -4 3.32 -4 4 C-7.13498292 5.85776765 -9.37471432 6.20140476 -13 6 C-13 6.66 -13 7.32 -13 8 C-14.32 8 -15.64 8 -17 8 C-17 8.66 -17 9.32 -17 10 C-18.65 9.67 -20.3 9.34 -22 9 C-16.73557722 2.89326958 -7.97387951 0 0 0 Z " fill="#F6C72F" transform="translate(169,29)"/>
<path d="M0 0 C3 1 3 1 4.45800781 3.63623047 C4.95139648 4.78494629 5.44478516 5.93366211 5.953125 7.1171875 C6.21760437 7.73014679 6.48208374 8.34310608 6.75457764 8.97463989 C7.31109084 10.27200898 7.86216735 11.57172164 8.40820312 12.87353516 C9.24646968 14.86660626 10.10617145 16.84938068 10.96875 18.83203125 C11.50652075 20.09319118 12.04302223 21.35489325 12.578125 22.6171875 C13.06700195 23.76815918 13.55587891 24.91913086 14.05957031 26.10498047 C15 29 15 29 14 32 C11.99866854 27.9285223 10.00507003 23.85338541 8.01855469 19.7746582 C7.34163442 18.38755577 6.66260964 17.00147832 5.98144531 15.61645508 C5.00291193 13.62586712 4.0319975 11.63172001 3.0625 9.63671875 C2.75626709 9.01786301 2.45003418 8.39900726 2.13452148 7.76139832 C0.78276652 4.96242724 0 3.1537215 0 0 Z " fill="#D5B85D" transform="translate(167,138)"/>
<path d="M0 0 C0.33 0 0.66 0 1 0 C1.33 12.87 1.66 25.74 2 39 C4.64 39 7.28 39 10 39 C6.59919915 41.87760072 4.59144531 42.46951823 0 44 C0 29.48 0 14.96 0 0 Z " fill="#635A30" transform="translate(50,37)"/>
<path d="M0 0 C0.99 0.33 1.98 0.66 3 1 C2.67 1.66 2.34 2.32 2 3 C1.24992403 9.50475722 2.13976957 14.38288527 5.125 20.1875 C6 22 6 22 6 24 C5.01 23.67 4.02 23.34 3 23 C3.33 25.64 3.66 28.28 4 31 C1.67527795 28.14693203 0.2491742 25.45925163 -1 22 C-0.34 21.67 0.32 21.34 1 21 C0.83701416 20.42475586 0.67402832 19.84951172 0.50610352 19.25683594 C0.00962472 17.04291893 -0.11479744 15.15326203 -0.09765625 12.890625 C-0.09443359 12.13652344 -0.09121094 11.38242187 -0.08789062 10.60546875 C-0.07951172 9.82816406 -0.07113281 9.05085938 -0.0625 8.25 C-0.05798828 7.45722656 -0.05347656 6.66445313 -0.04882812 5.84765625 C-0.03708565 3.89840492 -0.01915146 1.94919262 0 0 Z " fill="#E8C040" transform="translate(135,49)"/>
<path d="M0 0 C0.66 0 1.32 0 2 0 C3.25664978 2.90600261 4 4.79604584 4 8 C5.32 7.67 6.64 7.34 8 7 C9.04218885 10.38711375 9 13.47649693 9 17 C9.33 17.33 9.66 17.66 10 18 C10.04063832 19.66617115 10.042721 21.33388095 10 23 C6.90578773 19.35358984 5.18696245 15.28515717 3.3125 10.9375 C2.99216797 10.21755859 2.67183594 9.49761719 2.34179688 8.75585938 C1.00764058 5.69213585 0 3.37721995 0 0 Z " fill="#675D40" transform="translate(143,76)"/>
<path d="M0 0 C0.66 0.33 1.32 0.66 2 1 C1.34 1.66 0.68 2.32 0 3 C1.32 3.33 2.64 3.66 4 4 C4 3.34 4 2.68 4 2 C5.32 2.33 6.64 2.66 8 3 C5.37532366 4.4797435 2.75027507 5.95881943 0.125 7.4375 C-0.99455078 8.06881836 -0.99455078 8.06881836 -2.13671875 8.71289062 C-3.20986328 9.31713867 -3.20986328 9.31713867 -4.3046875 9.93359375 C-4.96452637 10.30540771 -5.62436523 10.67722168 -6.30419922 11.06030273 C-7.52114651 11.73465202 -8.75558603 12.37779302 -10 13 C-9.67 11.35 -9.34 9.7 -9 8 C-8.195625 7.87625 -7.39125 7.7525 -6.5625 7.625 C-5.716875 7.41875 -4.87125 7.2125 -4 7 C-3.67 6.34 -3.34 5.68 -3 5 C-4.32 4.34 -5.64 3.68 -7 3 C-4.69631264 1.93347808 -2.35981813 0.93578995 0 0 Z " fill="#EFC640" transform="translate(148,35)"/>
<path d="M0 0 C3.16115776 1.36983503 3.9927092 1.9890638 6 5 C6.3468602 8.81546222 6.53366895 11.13278796 4.5 14.4375 C4.005 14.953125 3.51 15.46875 3 16 C0.69 15.67 -1.62 15.34 -4 15 C-3.34 13.68 -2.68 12.36 -2 11 C0.97 11.495 0.97 11.495 4 12 C3.71872579 10.51882199 3.42466268 9.04006751 3.125 7.5625 C2.88136719 6.32693359 2.88136719 6.32693359 2.6328125 5.06640625 C2.42398438 4.38449219 2.21515625 3.70257813 2 3 C1.34 2.67 0.68 2.34 0 2 C0 1.34 0 0.68 0 0 Z " fill="#F7C92F" transform="translate(134,167)"/>
<path d="M0 0 C0 0.99 0 1.98 0 3 C-5.39459439 6.08467498 -9.79011871 7.55643705 -16 8 C-12.99121676 2.93977364 -9.64830911 1.93226105 -4.2421875 0.48046875 C-2 0 -2 0 0 0 Z " fill="#F1C538" transform="translate(186,21)"/>
<path d="M0 0 C0.33 0 0.66 0 1 0 C1.33 1.98 1.66 3.96 2 6 C3.32 5.34 4.64 4.68 6 4 C6 5.65 6 7.3 6 9 C5.01 9.33 4.02 9.66 3 10 C3 11.32 3 12.64 3 14 C3.66 14 4.32 14 5 14 C5 15.65 5 17.3 5 19 C-0.02388736 12.83432006 -0.26956487 7.71255046 0 0 Z " fill="#625B43" transform="translate(136,52)"/>
<path d="M0 0 C5.28 0 10.56 0 16 0 C15.34 1.32 14.68 2.64 14 4 C12.35 4 10.7 4 9 4 C8.67 5.98 8.34 7.96 8 10 C7.34 9.01 6.68 8.02 6 7 C6.66 5.68 7.32 4.36 8 3 C6.865625 2.87625 5.73125 2.7525 4.5625 2.625 C3.386875 2.41875 2.21125 2.2125 1 2 C0.67 1.34 0.34 0.68 0 0 Z " fill="#F9C832" transform="translate(130,39)"/>
<path d="M0 0 C1.65 0 3.3 0 5 0 C8 5.75 8 5.75 8 8 C7.34 8 6.68 8 6 8 C6 7.34 6 6.68 6 6 C5.34 6 4.68 6 4 6 C3.67 6.99 3.34 7.98 3 9 C2.01 6.03 1.02 3.06 0 0 Z " fill="#EBC13F" transform="translate(103,0)"/>
<path d="M0 0 C1.65 0 3.3 0 5 0 C1.8745041 2.64465038 -1.08788267 3.84414715 -5 5 C-5 5.66 -5 6.32 -5 7 C-6.26418246 7.69965443 -7.53665402 8.38434763 -8.8125 9.0625 C-9.52019531 9.44535156 -10.22789063 9.82820313 -10.95703125 10.22265625 C-13 11 -13 11 -16 10 C-10.25 7 -10.25 7 -8 7 C-8 6.01 -8 5.02 -8 4 C-6.68 4 -5.36 4 -4 4 C-4 3.34 -4 2.68 -4 2 C-2.68 2 -1.36 2 0 2 C0 1.34 0 0.68 0 0 Z " fill="#8B7D50" transform="translate(16,95)"/>
<path d="M0 0 C2.33294775 -0.04241723 4.66702567 -0.04092937 7 0 C7.33 0.33 7.66 0.66 8 1 C10.32817964 1.36760731 12.6618385 1.70241581 15 2 C15.33 3.98 15.66 5.96 16 8 C15.195625 7.360625 14.39125 6.72125 13.5625 6.0625 C10.13445161 3.73895407 7.02435816 3.41811656 2.953125 3.17578125 C1 3 1 3 -1 2 C-0.67 1.34 -0.34 0.68 0 0 Z " fill="#E6C140" transform="translate(114,55)"/>
<path d="M0 0 C-0.66 0 -1.32 0 -2 0 C-2 0.66 -2 1.32 -2 2 C-8.5 5 -8.5 5 -13 5 C-13 4.01 -13 3.02 -13 2 C-11.5882217 1.46605821 -10.17029756 0.94834896 -8.75 0.4375 C-7.96109375 0.14746094 -7.1721875 -0.14257812 -6.359375 -0.44140625 C-3.80896548 -1.04522837 -2.44677771 -0.8473932 0 0 Z " fill="#E9C33D" transform="translate(69,76)"/>
<path d="M0 0 C0.33 0.99 0.66 1.98 1 3 C-1.59925496 4.19942605 -4.20345507 5.38472821 -6.8125 6.5625 C-7.55048828 6.90474609 -8.28847656 7.24699219 -9.04882812 7.59960938 C-9.76103516 7.91865234 -10.47324219 8.23769531 -11.20703125 8.56640625 C-11.8616333 8.86490479 -12.51623535 9.16340332 -13.19067383 9.47094727 C-15 10 -15 10 -18 9 C-12.06 6.03 -6.12 3.06 0 0 Z " fill="#D6BE5F" transform="translate(29,91)"/>
<path d="M0 0 C-1.93108963 1.03290841 -3.870118 2.05098672 -5.8125 3.0625 C-6.89144531 3.63097656 -7.97039062 4.19945313 -9.08203125 4.78515625 C-12 6 -12 6 -15 5 C-14.34 5 -13.68 5 -13 5 C-12.896875 4.360625 -12.79375 3.72125 -12.6875 3.0625 C-12.460625 2.381875 -12.23375 1.70125 -12 1 C-7.58195135 -0.47268288 -4.51692082 -1.28506877 0 0 Z " fill="#665F3F" transform="translate(79,68)"/>
<path d="M0 0 C0 2 0 2 -1.28515625 3.578125 C-3.13224013 5.3156017 -4.78327603 6.75897693 -7 8 C-10.9375 7.375 -10.9375 7.375 -14 6 C-11.47732009 4.31821339 -9.18908177 3.09893258 -6.4375 1.875 C-5.65246094 1.52179687 -4.86742188 1.16859375 -4.05859375 0.8046875 C-2 0 -2 0 0 0 Z " fill="#655C41" transform="translate(107,61)"/>
<path d="M0 0 C0.66 0 1.32 0 2 0 C2 0.99 2 1.98 2 3 C2.66 3 3.32 3 4 3 C4.33 5.64 4.66 8.28 5 11 C4.01 11.66 3.02 12.32 2 13 C0.54815522 8.46298506 -0.23509196 4.81938524 0 0 Z " fill="#FCCA28" transform="translate(117,26)"/>
<path d="M0 0 C2.10715097 2.80953463 3.66589463 5.05846964 5.1875 8.125 C5.53167969 8.80820313 5.87585938 9.49140625 6.23046875 10.1953125 C7 12 7 12 7 14 C6.34 14 5.68 14 5 14 C5 13.34 5 12.68 5 12 C3.68 11.67 2.36 11.34 1 11 C0.67 7.37 0.34 3.74 0 0 Z " fill="#6B613F" transform="translate(143,91)"/>
<path d="M0 0 C3.13859074 3.13859074 4.81521799 6.83918177 5.19140625 11.23828125 C5.18799305 13.15991061 5.10099876 15.08102364 5 17 C4.67 17 4.34 17 4 17 C3.34 14.36 2.68 11.72 2 9 C1.01 9.33 0.02 9.66 -1 10 C-0.67 6.7 -0.34 3.4 0 0 Z " fill="#665E3C" transform="translate(113,26)"/>
<path d="M0 0 C0 0.66 0 1.32 0 2 C-3.44833324 4.05257931 -5.31661591 5.0632763 -9.375 4.6875 C-10.24125 4.460625 -11.1075 4.23375 -12 4 C-10.09824975 1.5699858 -9.07453827 1.01708169 -6 0.3125 C-3 0 -3 0 0 0 Z " fill="#F5C536" transform="translate(90,65)"/>
<path d="M0 0 C-2.67852163 3.82645947 -5.34810616 4.46819646 -9.75 5.25 C-11.49773637 5.51536311 -13.24721668 5.77032494 -15 6 C-12.25093187 3.81580889 -9.57798444 2.18545122 -6.375 0.75 C-5.59898437 0.39421875 -4.82296875 0.0384375 -4.0234375 -0.328125 C-2 -1 -2 -1 0 0 Z " fill="#6F603B" transform="translate(160,38)"/>
<path d="M0 0 C2.97381921 3.49334185 4.58440784 7.4044218 6.25 11.625 C6.53101562 12.305625 6.81203125 12.98625 7.1015625 13.6875 C7.7987745 15.43398154 8.40658567 17.21557803 9 19 C8.67 19.66 8.34 20.32 8 21 C5.04828094 17.76716484 3.98958458 14.32156719 2.74609375 10.21875 C2.06199862 7.97962676 2.06199862 7.97962676 0.91015625 5.96875 C0 4 0 4 0 0 Z " fill="#706133" transform="translate(104,5)"/>
<path d="M0 0 C-2.45620851 1.17133058 -4.91474917 2.33721722 -7.375 3.5 C-8.07367188 3.83386719 -8.77234375 4.16773437 -9.4921875 4.51171875 C-14.7734375 7 -14.7734375 7 -17 7 C-17 6.34 -17 5.68 -17 5 C-14.09399739 3.74335022 -12.20395416 3 -9 3 C-8.67 2.01 -8.34 1.02 -8 0 C-4.99093136 -1.24513185 -3.0590674 -0.84653438 0 0 Z " fill="#6E6139" transform="translate(96,60)"/>
<path d="M0 0 C0 0.33 0 0.66 0 1 C-0.61488281 1.04898438 -1.22976562 1.09796875 -1.86328125 1.1484375 C-2.67152344 1.22320312 -3.47976562 1.29796875 -4.3125 1.375 C-5.51326172 1.47941406 -5.51326172 1.47941406 -6.73828125 1.5859375 C-9.27224441 1.89564426 -9.27224441 1.89564426 -12 4 C-14.6875 3.625 -14.6875 3.625 -17 3 C-10.92875915 -1.0474939 -7.03725885 -1.13454718 0 0 Z " fill="#6E6139" transform="translate(124,58)"/>
<path d="M0 0 C0 1.32 0 2.64 0 4 C-3.57644848 5.2380014 -6.33694766 4.74926071 -10 4 C-6.64877401 1.34213111 -4.39380802 0 0 0 Z " fill="#655F43" transform="translate(80,73)"/>
<path d="M0 0 C3.16115776 1.36983503 3.9927092 1.9890638 6 5 C6.25 8.5625 6.25 8.5625 6 12 C5.34 12.66 4.68 13.32 4 14 C3.87882813 13.21753906 3.75765625 12.43507812 3.6328125 11.62890625 C3.38144531 10.11103516 3.38144531 10.11103516 3.125 8.5625 C2.96257812 7.55316406 2.80015625 6.54382813 2.6328125 5.50390625 C2.42398438 4.67761719 2.21515625 3.85132813 2 3 C1.34 2.67 0.68 2.34 0 2 C0 1.34 0 0.68 0 0 Z " fill="#DEBB45" transform="translate(134,167)"/>
<path d="M0 0 C0.66 0 1.32 0 2 0 C2 0.66 2 1.32 2 2 C4.97 2.495 4.97 2.495 8 3 C5.37801226 5.15377564 3.35595828 6.40072174 0 7 C0 4.69 0 2.38 0 0 Z " fill="#5B5A4A" transform="translate(0,98)"/>
<path d="M0 0 C0 0.66 0 1.32 0 2 C0.66 2.33 1.32 2.66 2 3 C0.02 3.99 -1.96 4.98 -4 6 C-4 5.34 -4 4.68 -4 4 C-6.31 4.33 -8.62 4.66 -11 5 C-7.72709962 2.33319229 -4.35126896 0 0 0 Z " fill="#E5BD44" transform="translate(71,72)"/>
<path d="M0 0 C1.16015625 0.01160156 1.16015625 0.01160156 2.34375 0.0234375 C3.1171875 0.01570313 3.890625 0.00796875 4.6875 0 C6.84375 0.3984375 6.84375 0.3984375 9.84375 3.3984375 C4.89375 3.3984375 -0.05625 3.3984375 -5.15625 3.3984375 C-2.15625 0.3984375 -2.15625 0.3984375 0 0 Z " fill="#EAC146" transform="translate(37.15625,30.6015625)"/>
<path d="M0 0 C3.80802445 1.4960096 5.69424557 3.66063151 8 7 C8.75 9.3125 8.75 9.3125 9 11 C8.34 11 7.68 11 7 11 C6.4121875 9.576875 6.4121875 9.576875 5.8125 8.125 C3.80206144 4.65872662 2.77300358 4.0197307 -1 3 C-0.67 2.01 -0.34 1.02 0 0 Z " fill="#695C3B" transform="translate(124,59)"/>
<path d="M0 0 C1.98 0 3.96 0 6 0 C2.2440786 3.42931954 -2.23466745 4.56429083 -7 6 C-7 5.34 -7 4.68 -7 4 C-6.01 4 -5.02 4 -4 4 C-4 3.34 -4 2.68 -4 2 C-2.68 2 -1.36 2 0 2 C0 1.34 0 0.68 0 0 Z " fill="#6B6037" transform="translate(170,23)"/>
<path d="M0 0 C2.4375 0.6875 2.4375 0.6875 5 2 C5.8125 4.625 5.8125 4.625 6 7 C4.35 5.68 2.7 4.36 1 3 C0.67 3.66 0.34 4.32 0 5 C-0.66 5 -1.32 5 -2 5 C-1.34 3.35 -0.68 1.7 0 0 Z " fill="#5E5C45" transform="translate(170,153)"/>
<path d="M0 0 C0.33 0 0.66 0 1 0 C1.66 3.3 2.32 6.6 3 10 C2.01 10.33 1.02 10.66 0 11 C-0.19406478 9.35492782 -0.38007935 7.70890406 -0.5625 6.0625 C-0.66691406 5.14597656 -0.77132812 4.22945313 -0.87890625 3.28515625 C-0.91886719 2.53105469 -0.95882812 1.77695312 -1 1 C-0.67 0.67 -0.34 0.34 0 0 Z " fill="#FCCA24" transform="translate(134,60)"/>
<path d="M0 0 C1.98 0 3.96 0 6 0 C6 1.65 6 3.3 6 5 C5.34 5 4.68 5 4 5 C3.67 5.66 3.34 6.32 3 7 C3 5.68 3 4.36 3 3 C2.34 3 1.68 3 1 3 C0.67 2.01 0.34 1.02 0 0 Z " fill="#5C574A" transform="translate(48,34)"/>
<path d="M0 0 C2.15377564 2.62198774 3.40072174 4.64404172 4 8 C3.34 8 2.68 8 2 8 C1.67 7.67 1.34 7.34 1 7 C0.67 7.99 0.34 8.98 0 10 C-0.74926071 6.33694766 -1.2380014 3.57644848 0 0 Z " fill="#E6C243" transform="translate(150,95)"/>
<path d="M0 0 C0.33 0.99 0.66 1.98 1 3 C-0.1875 5.1875 -0.1875 5.1875 -2 7 C-3.32 7 -4.64 7 -6 7 C-6 6.34 -6 5.68 -6 5 C-4.04072937 3.2856382 -2.04119788 1.61594832 0 0 Z " fill="#EBC33D" transform="translate(115,48)"/>
<path d="M0 0 C2.15377564 2.62198774 3.40072174 4.64404172 4 8 C3.01 8.33 2.02 8.66 1 9 C0.29925156 5.846632 0 3.27275026 0 0 Z " fill="#675B42" transform="translate(153,112)"/>
<path d="M0 0 C1.65 0 3.3 0 5 0 C5 0.66 5 1.32 5 2 C2 4 2 4 -2 4 C-2 3.34 -2 2.68 -2 2 C-1.34 2 -0.68 2 0 2 C0 1.34 0 0.68 0 0 Z " fill="#F9CC24" transform="translate(98,59)"/>
<path d="M0 0 C1.32 0.33 2.64 0.66 4 1 C-1.14285714 5.42857143 -1.14285714 5.42857143 -5 6 C-5 5.34 -5 4.68 -5 4 C-4.01 4 -3.02 4 -2 4 C-2 3.34 -2 2.68 -2 2 C-1.34 2 -0.68 2 0 2 C0 1.34 0 0.68 0 0 Z " fill="#6D6338" transform="translate(110,49)"/>
<path d="M0 0 C0.99 0.495 0.99 0.495 2 1 C2 1.66 2 2.32 2 3 C2.66 3 3.32 3 4 3 C4 4.65 4 6.3 4 8 C3.34 8 2.68 8 2 8 C0.23537317 4.91190305 0 3.76687864 0 0 Z " fill="#FCC928" transform="translate(141,80)"/>
<path d="M0 0 C0.33 0.66 0.66 1.32 1 2 C0.34 2 -0.32 2 -1 2 C-1 2.99 -1 3.98 -1 5 C-1.99 5 -2.98 5 -4 5 C-4 5.99 -4 6.98 -4 8 C-4.66 8 -5.32 8 -6 8 C-4.73058503 4.08597051 -3.48832306 2.20927127 0 0 Z " fill="#756537" transform="translate(143,44)"/>
<path d="M0 0 C0.33 0.66 0.66 1.32 1 2 C2.98 1.67 4.96 1.34 7 1 C4.06171403 3.50298434 1.82097239 4.46930939 -2 5 C-2 4.34 -2 3.68 -2 3 C-1.34 3 -0.68 3 0 3 C0 2.01 0 1.02 0 0 Z " fill="#675D3B" transform="translate(178,18)"/>
<path d="M0 0 C-0.66 0 -1.32 0 -2 0 C-2 0.66 -2 1.32 -2 2 C-3.8125 2.625 -3.8125 2.625 -6 3 C-6.99 2.34 -7.98 1.68 -9 1 C-5.57367167 -0.61798838 -3.61944899 -1.34053666 0 0 Z " fill="#F3C838" transform="translate(69,76)"/>
</svg>
