<?xml version="1.0" encoding="UTF-8"?>
<!DOCTYPE svg PUBLIC "-//W3C//DTD SVG 1.1//EN" "http://www.w3.org/Graphics/SVG/1.1/DTD/svg11.dtd">
<svg xmlns="http://www.w3.org/2000/svg" version="1.1" width="256px" height="256px" style="shape-rendering:geometricPrecision; text-rendering:geometricPrecision; image-rendering:optimizeQuality; fill-rule:evenodd; clip-rule:evenodd" xmlns:xlink="http://www.w3.org/1999/xlink">
<g><path style="opacity:0.995" fill="#15a801" d="M 111.5,-0.5 C 122.167,-0.5 132.833,-0.5 143.5,-0.5C 193.489,7.98005 228.323,35.6467 248,82.5C 251.314,92.0953 253.814,101.762 255.5,111.5C 255.5,122.167 255.5,132.833 255.5,143.5C 247.02,193.489 219.353,228.323 172.5,248C 162.905,251.314 153.238,253.814 143.5,255.5C 132.833,255.5 122.167,255.5 111.5,255.5C 61.5108,247.02 26.6775,219.353 7,172.5C 3.68558,162.905 1.18558,153.238 -0.5,143.5C -0.5,132.833 -0.5,122.167 -0.5,111.5C 7.98005,61.5108 35.6467,26.6775 82.5,7C 92.0953,3.68558 101.762,1.18558 111.5,-0.5 Z"/></g>
<g><path style="opacity:1" fill="#fcfefc" d="M 114.5,102.5 C 114.539,101.244 114.039,100.244 113,99.5C 112.5,110.495 112.333,121.495 112.5,132.5C 110.165,155.541 97.4979,167.874 74.5,169.5C 55.8185,168.651 43.6518,159.318 38,141.5C 36.8924,137.914 36.3924,134.247 36.5,130.5C 36.5,115.833 36.5,101.167 36.5,86.5C 42.1667,86.5 47.8333,86.5 53.5,86.5C 53.1707,101.343 53.504,116.01 54.5,130.5C 55.6095,146.88 64.2762,154.047 80.5,152C 88.2201,148.758 92.7201,142.925 94,134.5C 94.4999,118.17 94.6666,101.837 94.5,85.5C 105.5,85.5 116.5,85.5 127.5,85.5C 129.375,95.6238 132.541,105.29 137,114.5C 146.719,88.2225 165.219,78.7225 192.5,86C 209.69,93.6904 218.69,107.024 219.5,126C 217.624,153.209 203.124,167.709 176,169.5C 165.545,169.022 156.379,165.355 148.5,158.5C 147.914,158.709 147.414,159.043 147,159.5C 145.108,172.518 143.108,185.518 141,198.5C 134.924,199.476 128.758,199.81 122.5,199.5C 124.957,180.426 127.957,161.426 131.5,142.5C 128.042,135.583 124.542,128.583 121,121.5C 118.254,115.347 116.088,109.013 114.5,102.5 Z"/></g>
<g><path style="opacity:1" fill="#d8f1d4" d="M 54.5,130.5 C 53.504,116.01 53.1707,101.343 53.5,86.5C 47.8333,86.5 42.1667,86.5 36.5,86.5C 36.5,101.167 36.5,115.833 36.5,130.5C 35.5039,115.676 35.1706,100.676 35.5,85.5C 41.8333,85.5 48.1667,85.5 54.5,85.5C 54.5,100.5 54.5,115.5 54.5,130.5 Z"/></g>
<g><path style="opacity:1" fill="#bfe8ba" d="M 114.5,102.5 C 113.833,112.5 113.167,122.5 112.5,132.5C 112.333,121.495 112.5,110.495 113,99.5C 114.039,100.244 114.539,101.244 114.5,102.5 Z"/></g>
<g><path style="opacity:1" fill="#1aa906" d="M 171.5,100.5 C 190.005,99.3398 199.672,108.007 200.5,126.5C 200.394,142.602 192.394,151.269 176.5,152.5C 164.833,151.656 156.166,146.156 150.5,136C 151.305,123.565 155.972,112.899 164.5,104C 166.925,102.787 169.259,101.621 171.5,100.5 Z"/></g>
</svg>
